<svg width="411" height="334" fill="none" xmlns="http://www.w3.org/2000/svg"><path d="M107.96 333.933a.034.034 0 00.01-.027c-1.171-11.596-2.225-22.178-3.318-32.721-2.5-24.885-4.96-49.77-7.577-74.654-1.835-17.814-15.972-26.409-32.375-19.494-4.999 2.109-9.607 5.157-14.255 7.969-13.98 8.477-30.383 6.602-41.396-4.844-10.584-11.016-12.068-28.127-3.476-40.98 8.474-12.735 24.33-17.501 39.366-12.032 5.585 2.032 11.247 4.297 17.066 5.235 15.895 2.539 27.611-8.595 26.088-24.69-2.656-28.01-5.624-55.98-8.436-83.99C77.9 35.93 84.305 27.96 102.075 26.162a195484.42 195484.42 0 01255.8-25.86c17.731-1.797 25.19 4.297 26.986 21.916 8.631 85.28 17.262 170.599 25.854 255.879 1.796 17.658-4.804 25.744-22.456 27.58a26181.156 26181.156 0 01-80.099 8.087c-10.622 1.055-13.005-2.109-10.544-12.618 2.46-10.509 6.444-21.174 6.131-31.682-.547-20.275-15.504-36.839-34.953-42.152-18.941-5.196-39.6 1.992-51.394 17.814-12.068 16.212-12.81 37.698-2.07 55.004 2.46 3.946 4.881 8.009 6.795 12.228 2.695 5.82.625 9.961-5.78 10.626-35.704 3.747-71.407 7.299-108.358 11.007-.031.003-.049-.035-.027-.058z" fill="#E3813B"/><mask id="a" style="mask-type:alpha" maskUnits="userSpaceOnUse" x="0" y="0" width="411" height="334"><path d="M107.96 333.933a.034.034 0 00.01-.027c-1.171-11.596-2.225-22.178-3.318-32.721-2.5-24.885-4.96-49.77-7.577-74.654-1.835-17.814-15.972-26.409-32.375-19.494-4.999 2.109-9.607 5.157-14.255 7.969-13.98 8.477-30.383 6.602-41.396-4.844-10.584-11.016-12.068-28.127-3.476-40.98 8.474-12.735 24.33-17.501 39.366-12.032 5.585 2.032 11.247 4.297 17.066 5.235 15.895 2.539 27.611-8.595 26.088-24.69-2.656-28.01-5.624-55.98-8.436-83.99C77.9 35.93 84.305 27.96 102.075 26.162a195484.42 195484.42 0 01255.8-25.86c17.731-1.797 25.19 4.297 26.986 21.916 8.631 85.28 17.262 170.599 25.854 255.879 1.796 17.658-4.804 25.744-22.456 27.58a26181.156 26181.156 0 01-80.099 8.087c-10.622 1.055-13.005-2.109-10.544-12.618 2.46-10.509 6.444-21.174 6.131-31.682-.547-20.275-15.504-36.839-34.953-42.152-18.941-5.196-39.6 1.992-51.394 17.814-12.068 16.212-12.81 37.698-2.07 55.004 2.46 3.946 4.881 8.009 6.795 12.228 2.695 5.82.625 9.961-5.78 10.626-35.704 3.747-71.407 7.299-108.358 11.007-.031.003-.049-.035-.027-.058z" fill="#E3813B"/></mask><g mask="url(#a)" fill="#FEFBF3"><g clip-path="url(#clip0_18_502)"><path d="M238.8 256c-21.972 0-43.178-7.178-60.849-20.805-21.17-16.324-34.688-39.898-38.113-66.388-3.425-26.489 3.68-52.723 19.967-73.856 16.324-21.17 39.898-34.688 66.388-38.113 54.691-7.032 104.9 31.663 111.969 86.355 3.425 26.489-3.68 52.723-19.967 73.856-16.324 21.17-39.862 34.688-66.351 38.113a104.31 104.31 0 01-13.008.838h-.036zm.4-196.356c-4.153 0-8.344.255-12.534.801-25.505 3.316-48.242 16.324-63.946 36.728-15.74 20.368-22.554 45.655-19.275 71.161 3.316 25.505 16.324 48.242 36.728 63.946 20.368 15.704 45.655 22.554 71.197 19.238 25.506-3.315 48.242-16.323 63.946-36.728 15.704-20.368 22.554-45.655 19.239-71.197-3.316-25.505-16.324-48.241-36.728-63.946-17.016-13.08-37.457-20.003-58.627-20.003z"/><path d="M224.517 220.438l-1.239-1.239c-.255-.255-25.324-26.198-24.996-63.691.292-31.08 18.437-48.388 28.202-57.679 2.15-2.04 3.826-3.644 4.773-4.882l2.114-2.733.692 3.352c.073.328 7.214 34.323 9.765 41.137 2.223 5.939 9.036 31.991 1.712 50.902-6.923 17.817-19.384 32.829-19.894 33.448l-1.129 1.349v.036zm7.105-123.155c-.838.838-1.822 1.785-2.915 2.842-9.401 8.963-26.927 25.651-27.218 55.383-.292 31.445 17.963 54.509 22.882 60.12 3.243-4.153 12.716-16.87 18.254-31.116 6.96-18 .401-42.959-1.712-48.643-2.186-5.903-7.433-29.951-9.255-38.587h-.036z"/><path d="M222.84 218.07s-.145-15.595-2.149-57.351c-2.004-42.194 9.91-66.533 10.42-67.554l2.842 1.421c-.109.255-12.06 24.668-10.092 65.987 2.004 41.829 2.149 57.314 2.149 57.46h-3.17v.037z"/><path d="M221.092 144.213c-4.737-4.883-13.227-21.243-13.591-21.935l2.805-1.457s8.672 16.651 13.045 21.206l-2.259 2.222v-.036zm.983 29.841c-8.453-4.518-22.226-26.38-22.809-27.291l2.696-1.676c.146.219 13.919 22.081 21.644 26.198l-1.494 2.806-.037-.037zm.729 22.227c-6.741-4.263-21.862-21.862-22.518-22.627l2.405-2.077s15.449 17.999 21.789 22.007l-1.676 2.697zm2.223 4.955l-2.187-2.296s17.563-16.76 22.846-29.987l2.951 1.166c-5.574 13.846-22.882 30.425-23.61 31.117zm-.766-17.599l-2.04-2.441c8.745-7.288 22.08-19.858 23.064-24.631l3.097.619c-1.494 7.433-21.825 24.522-24.121 26.453zm-.874-18.072l-1.895-2.551s16.87-12.607 21.425-21.753l2.842 1.422c-4.883 9.801-21.643 22.335-22.372 22.882zm-.073-26.635l-1.494-2.806s10.676-5.866 15.085-16.396l2.915 1.238c-4.883 11.624-16.032 17.709-16.506 17.964zm-6.158 71.852c-4.518-.546-9.109-1.566-13.663-3.024l-1.166-.364.073-1.203c0-.218.364-5.647 4.117-14.101l2.878 1.276c-2.477 5.647-3.388 9.837-3.68 11.769a68.337 68.337 0 0011.806 2.514l-.365 3.133z"/><path d="M231.33 210.782l-.364-3.133c22.773-2.587 39.351-17.381 44.817-22.263 8.271-7.36 18.036-26.635 19.311-31.117 1.02-3.68 5.138-13.226 7.215-17.999a497.055 497.055 0 01-16.288 2.805 382.83 382.83 0 01-4.736.656c-9.692 1.312-21.717 2.915-31.919 9.838-.838.546-1.639 1.129-2.441 1.676l-1.822-2.587c.802-.583 1.64-1.13 2.478-1.713 10.822-7.36 23.283-9.036 33.303-10.384 1.603-.219 3.17-.437 4.664-.656 10.457-1.567 19.02-3.352 19.129-3.352l3.024-.619-1.239 2.805s-6.959 15.668-8.271 20.332c-1.384 4.992-11.259 24.631-20.259 32.61-5.647 5.029-22.809 20.332-46.565 23.028l-.037.073z"/><path d="M251.698 205.062c-4.737 0-13.627-4.81-14.684-5.393l1.53-2.769c3.863 2.113 10.931 5.32 13.518 4.955l.438 3.134c-.255 0-.51.036-.802.036v.037zm-.364-13.7c-5.466 0-9.146-.073-9.255-.073l.073-3.17s16.943.401 31.627-.51l.182 3.17c-7.907.473-16.433.583-22.664.583h.037zm-4.336-11.696l-1.968-2.478c12.935-10.239 55.457-43.797 59.647-44.598l.619 3.097c-3.352 1.02-37.529 27.509-58.298 43.979z"/><path d="M283.121 137.234l-4.29 14.005 3.031.928 4.29-14.005-3.031-.928zm-18.743 28.039h-3.17c0-6.194 9.182-24.704 10.202-26.781l2.842 1.421c-2.732 5.502-9.838 20.733-9.874 25.36zm-14.247 9c-1.639-8.089 8.381-30.242 9.51-32.756l2.879 1.311c-2.988 6.522-10.53 24.814-9.292 30.789l-3.097.62v.036z"/><path d="M266.965 176.022c-10.457 0-13.226-2.514-13.773-3.206l2.405-2.041s5.137 4.7 32.028-.109l.546 3.133c-9.291 1.64-16.141 2.223-21.206 2.223zm10.967-15.376c-4.591 0-6.668-.729-6.813-.802l1.129-2.951s6.632 2.222 23.429-2.004l.765 3.06c-8.417 2.114-14.465 2.697-18.51 2.697z"/><path d="M239.018 239.531c-45.91 0-83.257-37.493-83.257-83.549 0-46.056 37.311-83.55 83.257-83.55 45.947 0 83.258 37.494 83.258 83.55s-37.348 83.549-83.258 83.549zm0-163.454c-43.906 0-79.65 35.853-79.65 79.905s35.708 79.905 79.614 79.905c43.906 0 79.614-35.853 79.614-79.905s-35.672-79.906-79.578-79.906z"/></g><path d="M-56.21 305c-22.53 0-44.221-7.559-62.077-21.764-20.888-16.651-34.07-40.424-37.064-66.971-6.245-54.774 33.303-104.4 88.077-110.608 26.547-3.031 52.657 4.492 73.544 21.143 20.887 16.652 34.07 40.424 37.064 66.935 2.994 26.547-4.491 52.656-21.143 73.543-16.651 20.888-40.424 34.07-66.97 37.065a101.11 101.11 0 01-11.467.657h.037zm.402-196.349c-3.651 0-7.34.22-11.064.621-52.766 5.989-90.853 53.825-84.864 106.591 2.885 25.562 15.592 48.494 35.713 64.488 20.12 16.031 45.28 23.261 70.878 20.376 25.561-2.884 48.494-15.592 64.524-35.713 16.031-20.12 23.261-45.316 20.376-70.878-2.884-25.561-15.592-48.493-35.712-64.524-17.236-13.694-38.124-20.997-59.814-20.997l-.037.036z"/><path d="M-56.027 288.75c-46.01 0-83.44-37.575-83.44-83.732s37.43-83.732 83.44-83.732 83.44 37.575 83.44 83.732-37.43 83.732-83.44 83.732zm0-163.812c-44.002 0-79.788 35.932-79.788 80.08 0 44.148 35.786 80.08 79.788 80.08 44.002 0 79.788-35.932 79.788-80.08 0-44.148-35.749-80.08-79.788-80.08z"/></g><defs><clipPath id="clip0_18_502"><path fill="#fff" transform="translate(139 56)" d="M0 0h200v200H0z"/></clipPath></defs></svg>