<svg width="370" height="439" viewBox="0 0 370 439" fill="none" xmlns="http://www.w3.org/2000/svg">
<path d="M342.797 331.218C342.791 331.21 342.781 331.206 342.771 331.206C331.117 331.362 320.483 331.489 309.885 331.659C284.877 331.981 259.873 332.263 234.855 332.7C216.949 332.976 207.155 346.311 212.614 363.254C214.279 368.417 216.913 373.274 219.31 378.149C226.537 392.815 223.239 408.992 210.877 418.966C198.98 428.549 181.805 428.536 169.75 418.857C157.801 409.304 154.436 393.093 161.194 378.592C163.705 373.205 166.455 367.762 167.897 362.047C171.812 346.433 161.741 333.792 145.575 333.906C117.44 334.11 89.3168 334.629 61.1682 334.989C43.3079 335.191 35.927 328.116 35.6856 310.257C34.4798 224.533 33.3095 138.851 32.2171 53.1759C31.9722 35.3564 38.6933 28.4567 56.4015 28.2026C142.109 27.0373 227.856 25.8753 313.561 24.7489C331.308 24.4982 338.788 31.7779 339.079 49.523C339.478 76.3335 339.835 103.179 340.154 130.022C340.279 140.696 336.919 142.793 326.664 139.427C316.41 136.06 306.133 131.162 295.637 130.557C275.392 129.335 257.587 142.792 250.599 161.703C243.773 180.119 249.133 201.327 263.866 214.455C278.965 227.89 300.305 230.501 318.481 221.311C322.626 219.204 326.884 217.146 331.254 215.607C337.288 213.43 341.232 215.853 341.336 222.291C341.957 258.186 342.384 294.063 342.857 331.196C342.857 331.228 342.818 331.242 342.797 331.218Z" fill="#5D5968"/>
</svg>
