<svg width="452" height="385" viewBox="0 0 452 385" fill="none" xmlns="http://www.w3.org/2000/svg">
<path d="M300.457 14.1563C300.451 14.1644 300.448 14.1748 300.451 14.1846C303.125 25.5289 305.551 35.8827 308.011 46.1928C313.737 70.5385 319.424 94.8893 325.266 119.22C329.41 136.642 344.549 143.318 359.908 134.321C364.589 131.577 368.76 127.955 373.001 124.56C385.756 114.33 402.263 114.049 414.676 123.96C426.607 133.501 430.311 150.271 423.47 164.135C416.73 177.868 401.632 184.662 386.011 181.202C380.209 179.917 374.299 178.41 368.408 178.24C352.317 177.797 342.155 190.364 345.765 206.123C352.054 233.547 358.647 260.891 365.091 288.294C369.153 305.688 363.843 314.425 346.46 318.526C263.029 338.256 179.631 357.942 96.2224 377.551C78.8782 381.647 70.6874 376.578 66.6069 359.345C46.9197 275.921 27.2273 192.458 7.57883 109.028C3.49316 91.7562 8.98137 82.8774 26.243 78.7531C52.3315 72.5607 78.4639 66.4018 104.601 60.2817C114.995 57.8496 117.77 60.676 116.703 71.4158C115.635 82.1557 113.077 93.2492 114.758 103.627C117.947 123.658 134.938 138.128 154.914 140.857C174.371 143.536 193.915 133.713 203.544 116.487C213.392 98.8389 211.324 77.4398 198.417 61.6834C195.463 58.0927 192.532 54.3806 190.084 50.4474C186.653 45.0281 188.164 40.6524 194.428 39.158C229.337 30.7832 264.272 22.6016 300.422 14.103C300.453 14.0958 300.476 14.1312 300.457 14.1563Z" fill="#E4391F"/>
<mask id="mask0_18_315" style="mask-type:alpha" maskUnits="userSpaceOnUse" x="6" y="14" width="421" height="365">
<path d="M300.457 14.1563C300.45 14.1644 300.448 14.1748 300.45 14.1846C303.125 25.5289 305.551 35.8827 308.011 46.1928C313.736 70.5385 319.424 94.8893 325.266 119.22C329.41 136.642 344.549 143.318 359.908 134.321C364.589 131.577 368.76 127.955 373.001 124.56C385.756 114.33 402.263 114.049 414.676 123.96C426.607 133.501 430.311 150.271 423.47 164.135C416.73 177.868 401.632 184.662 386.011 181.202C380.209 179.917 374.299 178.41 368.408 178.24C352.317 177.797 342.155 190.364 345.765 206.123C352.054 233.547 358.647 260.891 365.091 288.294C369.153 305.688 363.843 314.425 346.46 318.526C263.028 338.256 179.63 357.942 96.2222 377.551C78.8781 381.647 70.6873 376.578 66.6068 359.345C46.9195 275.921 27.2272 192.458 7.57871 109.028C3.49304 91.7562 8.98125 82.8774 26.2428 78.7531C52.3314 72.5607 78.4638 66.4018 104.601 60.2817C114.995 57.8496 117.77 60.676 116.702 71.4158C115.635 82.1557 113.077 93.2492 114.758 103.627C117.947 123.658 134.938 138.128 154.914 140.857C174.371 143.536 193.915 133.713 203.544 116.487C213.392 98.8389 211.324 77.4398 198.417 61.6834C195.463 58.0927 192.532 54.3806 190.084 50.4474C186.653 45.0281 188.164 40.6524 194.428 39.158C229.337 30.7832 264.272 22.6016 300.422 14.103C300.453 14.0958 300.476 14.1312 300.457 14.1563Z" fill="#E4391F"/>
</mask>
<g mask="url(#mask0_18_315)">
<g clip-path="url(#clip0_18_315)">
<path d="M187.673 302C132.698 302 87.9998 257.156 87.9998 202C87.9998 146.844 132.698 102 187.673 102C242.648 102 287.346 146.844 287.346 202C287.346 257.156 242.648 302 187.673 302ZM187.673 105.631C134.732 105.631 91.6308 148.877 91.6308 202C91.6308 255.123 134.732 298.369 187.673 298.369C240.614 298.369 283.715 255.123 283.715 202C283.715 148.877 240.614 105.631 187.673 105.631Z" fill="#FEFBF3"/>
<path d="M187.673 285.261C141.921 285.261 104.703 247.897 104.703 202C104.703 156.103 141.921 118.739 187.673 118.739C233.425 118.739 270.643 156.103 270.643 202C270.643 247.897 233.425 285.261 187.673 285.261ZM187.673 122.37C143.918 122.37 108.334 158.1 108.334 202C108.334 245.9 143.918 281.63 187.673 281.63C231.427 281.63 267.012 245.9 267.012 202C267.012 158.1 231.427 122.37 187.673 122.37Z" fill="#FEFBF3"/>
<path d="M117.597 159.63L115.788 162.779L257.812 244.38L259.621 241.232L117.597 159.63Z" fill="#FEFBF3"/>
<path d="M162.001 253.67C159.968 253.67 157.971 253.452 155.901 253.017C154.921 252.799 154.303 251.855 154.521 250.874C154.739 249.894 155.719 249.276 156.664 249.494C170.353 252.472 183.824 243.394 186.547 230.068C186.765 229.051 187.491 228.289 188.472 228.071C189.416 227.853 190.396 228.144 191.014 228.906C195.189 233.844 201.29 236.64 207.753 236.64C212.691 236.64 217.339 235.043 221.188 232.029C223.621 230.177 225.654 227.817 227.07 225.166C227.687 223.968 228.886 223.133 230.266 222.951C239.452 221.826 246.351 213.982 246.351 204.759C246.351 194.956 238.871 186.386 230.338 186.386H228.45C226.852 186.386 225.509 185.406 225 183.881C223.947 180.576 222.132 177.672 219.626 175.13C218.9 174.404 218.9 173.278 219.626 172.552C220.353 171.826 221.478 171.826 222.205 172.552C225.073 175.457 227.252 178.942 228.45 182.719H230.338C240.796 182.719 249.982 192.995 249.982 204.723C249.982 215.798 241.703 225.166 230.738 226.546C230.556 226.546 230.374 226.691 230.266 226.873C228.595 229.995 226.235 232.755 223.403 234.897C218.9 238.42 213.49 240.271 207.753 240.271C200.926 240.271 194.427 237.548 189.634 232.755C186.221 244.992 174.892 253.706 161.965 253.706L162.001 253.67Z" fill="#FEFBF3"/>
<path d="M144.1 246.844C143.628 246.844 143.156 246.662 142.829 246.299C142.793 246.263 142.72 246.19 142.684 246.154C136.693 240.744 133.279 233.009 133.279 224.912C133.279 220.301 134.332 215.943 136.438 211.876C136.584 211.622 136.584 211.295 136.438 211.005C134.369 206.974 133.316 202.581 133.316 198.006C133.316 187.367 139.125 177.672 148.421 172.697C151.507 170.99 154.957 169.901 158.588 169.465C161.529 162.131 168.283 157.555 175.945 157.555C182.989 157.555 189.416 161.586 192.43 167.868C200.055 163.91 209.677 164.164 217.157 168.558C218.029 169.066 218.319 170.192 217.811 171.027C217.303 171.898 216.177 172.189 215.342 171.68C208.77 167.795 200.164 167.722 193.628 171.354C192.938 171.753 192.03 171.862 191.231 171.608C190.433 171.354 189.743 170.7 189.416 169.901C187.092 164.6 181.827 161.186 175.981 161.186C169.844 161.186 164.434 164.89 162.219 170.591C161.674 171.971 160.512 172.879 159.096 173.06C155.901 173.423 152.924 174.367 150.2 175.856C142.03 180.213 136.983 188.71 136.983 197.969C136.983 201.964 137.891 205.812 139.706 209.335C140.36 210.678 140.36 212.167 139.706 213.474C137.891 217.033 136.947 220.845 136.947 224.876C136.947 231.993 139.997 238.819 145.262 243.539C145.516 243.721 145.698 243.975 145.807 244.266C146.097 244.956 145.916 245.754 145.407 246.263C145.044 246.626 144.572 246.807 144.136 246.807L144.1 246.844Z" fill="#FEFBF3"/>
<path d="M238.072 172.043C233.279 172.043 229.358 168.122 229.358 163.329C229.358 158.536 233.279 154.614 238.072 154.614C242.865 154.614 246.787 158.536 246.787 163.329C246.787 168.122 242.865 172.043 238.072 172.043ZM238.072 158.282C235.276 158.282 232.989 160.569 232.989 163.365C232.989 166.161 235.276 168.449 238.072 168.449C240.868 168.449 243.156 166.161 243.156 163.365C243.156 160.569 240.868 158.282 238.072 158.282Z" fill="#FEFBF3"/>
<path d="M149.837 257.156C145.262 257.156 141.558 253.452 141.558 248.877C141.558 244.302 145.262 240.598 149.837 240.598C154.412 240.598 158.116 244.302 158.116 248.877C158.116 253.452 154.412 257.156 149.837 257.156ZM149.837 244.229C147.259 244.229 145.189 246.336 145.189 248.877C145.189 251.419 147.259 253.525 149.837 253.525C152.415 253.525 154.485 251.455 154.485 248.877C154.485 246.299 152.415 244.229 149.837 244.229Z" fill="#FEFBF3"/>
<path d="M155.792 200.656H158.588C160.077 200.656 161.275 199.458 161.275 197.969C161.275 196.481 160.077 195.282 158.588 195.282H155.792C154.303 195.282 153.105 196.481 153.105 197.969C153.105 199.458 154.303 200.656 155.792 200.656Z" fill="#FEFBF3"/>
<path d="M173.367 221.462H176.162C177.651 221.462 178.849 220.264 178.849 218.775C178.849 217.287 177.651 216.088 176.162 216.088H173.367C171.878 216.088 170.68 217.287 170.68 218.775C170.68 220.264 171.878 221.462 173.367 221.462Z" fill="#FEFBF3"/>
<path d="M201.398 186.096H206.954C208.443 186.096 209.641 184.897 209.641 183.409C209.641 181.92 208.443 180.722 206.954 180.722H201.398C199.91 180.722 198.711 181.92 198.711 183.409C198.711 184.897 199.91 186.096 201.398 186.096Z" fill="#FEFBF3"/>
<path d="M185.821 266.669H188.181C189.67 266.669 190.868 265.471 190.868 263.982C190.868 262.494 189.67 261.295 188.181 261.295H185.821C184.332 261.295 183.134 262.494 183.134 263.982C183.134 265.471 184.332 266.669 185.821 266.669Z" fill="#FEFBF3"/>
<path d="M155.792 230.758H158.588C160.077 230.758 161.275 229.56 161.275 228.071C161.275 226.582 160.077 225.384 158.588 225.384H155.792C154.303 225.384 153.105 226.582 153.105 228.071C153.105 229.56 154.303 230.758 155.792 230.758Z" fill="#FEFBF3"/>
<path d="M221.551 206.03H224.347C225.836 206.03 227.034 204.832 227.034 203.343C227.034 201.855 225.836 200.656 224.347 200.656H221.551C220.062 200.656 218.864 201.855 218.864 203.343C218.864 204.832 220.062 206.03 221.551 206.03Z" fill="#FEFBF3"/>
</g>
<path d="M480.791 215C458.26 215 436.569 207.441 418.713 193.236C397.825 176.585 384.643 152.812 381.649 126.265C375.404 71.4906 414.952 21.8649 469.726 15.6571C496.273 12.6263 522.383 20.1486 543.27 36.8001C564.157 53.4515 577.34 77.2237 580.334 103.735C583.328 130.282 575.843 156.391 559.191 177.278C542.54 198.166 518.768 211.348 492.22 214.343C488.386 214.781 484.552 215 480.754 215H480.791ZM481.192 18.6515C477.541 18.6515 473.852 18.8706 470.128 19.2722C417.362 25.2609 379.275 73.0973 385.264 125.863C388.149 151.425 400.856 174.357 420.977 190.351C441.097 206.382 466.257 213.612 491.855 210.727C517.416 207.843 540.349 195.135 556.379 175.014C572.41 154.894 579.64 129.698 576.755 104.136C573.871 78.5748 561.163 55.6425 541.042 39.6118C523.807 25.9182 502.919 18.6149 481.229 18.6149L481.192 18.6515Z" fill="#FEFBF3"/>
<path d="M480.973 198.75C434.963 198.75 397.533 161.175 397.533 115.018C397.533 68.8615 434.963 31.2861 480.973 31.2861C526.984 31.2861 564.413 68.8615 564.413 115.018C564.413 161.175 526.984 198.75 480.973 198.75ZM480.973 34.9378C436.971 34.9378 401.185 70.8699 401.185 115.018C401.185 159.166 436.971 195.098 480.973 195.098C524.975 195.098 560.762 159.166 560.762 115.018C560.762 70.8699 525.012 34.9378 480.973 34.9378Z" fill="#FEFBF3"/>
</g>
<defs>
<clipPath id="clip0_18_315">
<rect width="199.346" height="200" fill="white" transform="translate(87.9998 102)"/>
</clipPath>
</defs>
</svg>
