<svg width="411" height="334" viewBox="0 0 411 334" fill="none" xmlns="http://www.w3.org/2000/svg">
<path d="M107.96 333.933C107.967 333.926 107.971 333.916 107.97 333.906C106.799 322.31 105.745 311.728 104.652 301.185C102.152 276.3 99.692 251.415 97.0754 226.531C95.2399 208.717 81.1025 200.122 64.7 207.037C59.7011 209.146 55.0928 212.194 50.4454 215.006C36.4643 223.483 20.0617 221.608 9.04863 210.162C-1.53489 199.146 -3.01892 182.035 5.57287 169.182C14.0475 156.447 29.9033 151.681 44.9389 157.15C50.5236 159.182 56.1863 161.447 62.0053 162.385C77.9001 164.924 89.6162 153.79 88.0931 137.695C85.4375 109.685 82.4694 81.7144 79.6575 53.7044C77.9001 35.9296 84.3049 27.9602 102.074 26.1632C187.367 17.4906 272.621 8.85712 357.875 0.301754C375.606 -1.49526 383.065 4.59897 384.861 22.2176C393.492 107.498 402.123 192.817 410.715 278.097C412.511 295.755 405.911 303.841 388.259 305.677C361.585 308.412 334.873 311.108 308.16 313.764C297.538 314.819 295.155 311.655 297.616 301.146C300.076 290.637 304.06 279.972 303.747 269.464C303.2 249.189 288.243 232.625 268.794 227.312C249.853 222.116 229.194 229.304 217.4 245.126C205.332 261.338 204.59 282.824 215.33 300.13C217.79 304.076 220.211 308.139 222.125 312.358C224.82 318.178 222.75 322.319 216.345 322.984C180.641 326.731 144.938 330.283 107.987 333.991C107.956 333.994 107.938 333.956 107.96 333.933Z" fill="#524F5A"/>
<mask id="mask0_18_441" style="mask-type:alpha" maskUnits="userSpaceOnUse" x="0" y="0" width="411" height="334">
<path d="M107.96 333.933C107.967 333.926 107.971 333.916 107.97 333.906C106.799 322.31 105.745 311.728 104.652 301.185C102.152 276.3 99.692 251.415 97.0754 226.531C95.2399 208.717 81.1025 200.122 64.7 207.037C59.7011 209.146 55.0928 212.194 50.4454 215.006C36.4643 223.483 20.0617 221.608 9.04863 210.162C-1.53489 199.146 -3.01892 182.035 5.57287 169.182C14.0475 156.447 29.9033 151.681 44.9389 157.15C50.5236 159.182 56.1863 161.447 62.0053 162.385C77.9001 164.924 89.6162 153.79 88.0931 137.695C85.4375 109.685 82.4694 81.7144 79.6575 53.7044C77.9001 35.9296 84.3049 27.9602 102.074 26.1632C187.367 17.4906 272.621 8.85712 357.875 0.301754C375.606 -1.49526 383.065 4.59897 384.861 22.2176C393.492 107.498 402.123 192.817 410.715 278.097C412.511 295.755 405.911 303.841 388.259 305.677C361.585 308.412 334.873 311.108 308.16 313.764C297.538 314.819 295.155 311.655 297.616 301.146C300.076 290.637 304.06 279.972 303.747 269.464C303.2 249.189 288.243 232.625 268.794 227.312C249.853 222.116 229.194 229.304 217.4 245.126C205.332 261.338 204.59 282.824 215.33 300.13C217.79 304.076 220.211 308.139 222.125 312.358C224.82 318.178 222.75 322.319 216.345 322.984C180.641 326.731 144.938 330.283 107.987 333.991C107.956 333.994 107.938 333.956 107.96 333.933Z" fill="#524F5A"/>
</mask>
<g mask="url(#mask0_18_441)">
<g clip-path="url(#clip0_18_441)">
<path d="M242.799 256C220.269 256 198.578 248.441 180.721 234.236C159.834 217.585 146.652 193.813 143.657 167.265C137.413 112.491 176.96 62.8651 231.735 56.6574C258.282 53.6265 284.391 61.1489 305.279 77.8003C326.166 94.4518 339.348 118.224 342.343 144.735C345.337 171.282 337.851 197.391 321.2 218.279C304.548 239.166 280.776 252.348 254.229 255.343C250.395 255.781 246.56 256 242.763 256H242.799ZM243.201 59.6517C239.549 59.6517 235.861 59.8708 232.136 60.2725C179.37 66.2612 141.284 114.098 147.272 166.864C150.157 192.425 162.865 215.357 182.985 231.352C203.106 247.382 228.266 254.612 253.864 251.728C279.425 248.843 302.357 236.135 318.388 216.015C334.419 195.894 341.649 170.698 338.764 145.136C335.879 119.575 323.172 96.6428 303.051 80.6121C285.815 66.9185 264.928 59.6152 243.237 59.6152L243.201 59.6517Z" fill="#FEFBF3"/>
<path d="M228.777 221.529L225.271 220.506C229.726 204.987 230.274 190.453 226.878 177.271C224.687 168.69 221.291 162.445 218.005 156.42C214.097 149.19 210.044 141.74 208.255 130.603C206.429 119.356 207.378 107.598 211.103 95.6934L214.608 96.7889C211.066 108.182 210.154 119.356 211.87 130.055C213.586 140.572 217.274 147.437 221.218 154.704C224.614 160.948 228.083 167.411 230.42 176.394C233.962 190.198 233.414 205.388 228.777 221.565V221.529Z" fill="#FEFBF3"/>
<path d="M251.527 218.936L248.021 217.913C252.476 202.394 253.024 187.86 249.628 174.678C247.437 166.097 244.041 159.852 240.754 153.827C236.847 146.597 232.794 139.148 231.004 128.01C229.179 116.763 230.128 105.005 233.853 93.064L237.358 94.1595C233.816 105.553 232.903 116.727 234.62 127.426C236.336 137.943 240.024 144.808 243.968 152.074C247.364 158.319 250.833 164.782 253.17 173.765C256.712 187.568 256.164 202.759 251.527 218.936Z" fill="#FEFBF3"/>
<path d="M216.722 205.115C214.688 205.115 212.691 204.897 210.622 204.461C209.641 204.243 209.024 203.299 209.242 202.319C209.46 201.338 210.44 200.721 211.384 200.939C225.073 203.916 238.545 194.839 241.268 181.513C241.486 180.496 242.212 179.733 243.192 179.516C244.137 179.298 245.117 179.588 245.734 180.351C249.91 185.289 256.01 188.085 262.474 188.085C267.412 188.085 272.06 186.487 275.909 183.473C278.341 181.622 280.375 179.261 281.791 176.611C282.408 175.412 283.606 174.577 284.986 174.396C294.173 173.27 301.072 165.427 301.072 156.204C301.072 146.4 293.592 137.831 285.059 137.831H283.171C281.573 137.831 280.23 136.85 279.721 135.325C278.668 132.021 276.853 129.116 274.347 126.574C273.621 125.848 273.621 124.723 274.347 123.996C275.073 123.27 276.199 123.27 276.925 123.996C279.794 126.901 281.972 130.387 283.171 134.163H285.059C295.516 134.163 304.703 144.439 304.703 156.168C304.703 167.243 296.424 176.611 285.458 177.991C285.277 177.991 285.095 178.136 284.986 178.317C283.316 181.44 280.956 184.2 278.123 186.342C273.621 189.864 268.211 191.716 262.474 191.716C255.647 191.716 249.147 188.993 244.354 184.2C240.941 196.436 229.612 205.151 216.686 205.151L216.722 205.115Z" fill="#FEFBF3"/>
<path d="M198.821 198.288C198.349 198.288 197.877 198.107 197.55 197.744C197.513 197.707 197.441 197.635 197.405 197.598C191.413 192.188 188 184.454 188 176.357C188 171.745 189.053 167.388 191.159 163.321C191.304 163.067 191.304 162.74 191.159 162.45C189.089 158.419 188.036 154.025 188.036 149.45C188.036 138.811 193.846 129.116 203.142 124.142C206.228 122.435 209.678 121.346 213.309 120.91C216.25 113.575 223.004 109 230.665 109C237.71 109 244.137 113.03 247.15 119.312C254.776 115.354 264.398 115.609 271.878 120.002C272.749 120.511 273.04 121.636 272.532 122.471C272.023 123.343 270.898 123.633 270.062 123.125C263.49 119.24 254.885 119.167 248.349 122.798C247.659 123.198 246.751 123.306 245.952 123.052C245.153 122.798 244.463 122.145 244.137 121.346C241.813 116.044 236.548 112.631 230.702 112.631C224.565 112.631 219.155 116.335 216.94 122.036C216.395 123.415 215.233 124.323 213.817 124.505C210.622 124.868 207.644 125.812 204.921 127.301C196.751 131.658 191.704 140.155 191.704 149.414C191.704 153.408 192.611 157.257 194.427 160.779C195.081 162.123 195.081 163.611 194.427 164.919C192.611 168.477 191.667 172.29 191.667 176.32C191.667 183.437 194.718 190.264 199.983 194.984C200.237 195.166 200.418 195.42 200.527 195.71C200.818 196.4 200.636 197.199 200.128 197.707C199.765 198.07 199.293 198.252 198.857 198.252L198.821 198.288Z" fill="#FEFBF3"/>
<path d="M204.558 208.601C199.983 208.601 196.279 204.897 196.279 200.322C196.279 195.747 199.983 192.043 204.558 192.043C209.133 192.043 212.837 195.747 212.837 200.322C212.837 204.897 209.133 208.601 204.558 208.601ZM204.558 195.674C201.98 195.674 199.91 197.78 199.91 200.322C199.91 202.864 201.98 204.97 204.558 204.97C207.136 204.97 209.205 202.9 209.205 200.322C209.205 197.744 207.136 195.674 204.558 195.674Z" fill="#FEFBF3"/>
<path d="M274.276 216.38L270.771 215.357C275.226 199.838 275.773 185.304 272.377 172.122C270.186 163.541 266.79 157.296 263.504 151.271C259.597 144.041 255.543 136.592 253.754 125.454C251.928 114.207 252.878 102.449 256.602 90.5444L260.108 91.6399C256.566 103.033 255.653 114.207 257.369 124.906C259.085 135.423 262.774 142.288 266.717 149.555C270.113 155.799 273.582 162.263 275.919 171.246C279.462 185.049 278.914 200.24 274.276 216.416V216.38Z" fill="#FEFBF3"/>
<path d="M242.982 239.75C196.971 239.75 159.542 202.175 159.542 156.018C159.542 109.862 196.971 72.2864 242.982 72.2864C288.992 72.2864 326.422 109.862 326.422 156.018C326.422 202.175 288.992 239.75 242.982 239.75ZM242.982 75.938C198.98 75.938 163.194 111.87 163.194 156.018C163.194 200.167 198.98 236.099 242.982 236.099C286.984 236.099 322.77 200.167 322.77 156.018C322.77 111.87 287.02 75.938 242.982 75.938Z" fill="#FEFBF3"/>
</g>
<path d="M-55.2095 299C-77.7401 299 -99.4308 291.441 -117.287 277.236C-138.175 260.585 -151.357 236.812 -154.351 210.265C-160.596 155.491 -121.048 105.865 -66.2739 99.6571C-39.7265 96.6263 -13.6174 104.149 7.26999 120.8C28.1573 137.452 41.3397 161.224 44.3341 187.735C47.3284 214.282 39.8426 240.391 23.1911 261.278C6.53966 282.166 -17.2325 295.348 -43.7799 298.343C-47.6141 298.781 -51.4483 299 -55.246 299H-55.2095ZM-54.8078 102.651C-58.4594 102.651 -62.1476 102.871 -65.8722 103.272C-118.638 109.261 -156.725 157.097 -150.736 209.863C-147.851 235.425 -135.144 258.357 -115.023 274.351C-94.9027 290.382 -69.743 297.612 -44.145 294.727C-18.5836 291.843 4.34868 279.135 20.3793 259.014C36.41 238.894 43.6403 213.698 40.7555 188.136C37.8707 162.575 25.163 139.643 5.0425 123.612C-12.1932 109.918 -33.0806 102.615 -54.7713 102.615L-54.8078 102.651Z" fill="#FEFBF3"/>
<path d="M-55.0267 282.75C-101.037 282.75 -138.467 245.175 -138.467 199.018C-138.467 152.861 -101.037 115.286 -55.0267 115.286C-9.01613 115.286 28.4131 152.861 28.4131 199.018C28.4131 245.175 -9.01613 282.75 -55.0267 282.75ZM-55.0267 118.938C-99.0289 118.938 -134.815 154.87 -134.815 199.018C-134.815 243.166 -99.0289 279.098 -55.0267 279.098C-11.0245 279.098 24.7615 243.166 24.7615 199.018C24.7615 154.87 -10.988 118.938 -55.0267 118.938Z" fill="#FEFBF3"/>
</g>
<defs>
<clipPath id="clip0_18_441">
<rect width="200" height="200" fill="white" transform="translate(143 56)"/>
</clipPath>
</defs>
</svg>
