<svg width="367" height="438" viewBox="0 0 367 438" fill="none" xmlns="http://www.w3.org/2000/svg">
<path d="M8.95693 135.091C8.96467 135.097 8.97494 135.1 8.98489 135.098C20.4453 132.977 30.9045 131.055 41.3216 129.097C65.9161 124.557 90.5137 120.056 115.099 115.399C132.701 112.103 140.102 97.306 131.86 81.5286C129.346 76.7204 125.93 72.3786 122.744 67.9787C113.144 54.743 113.662 38.2418 124.163 26.3236C134.271 14.8688 151.201 11.9809 164.717 19.4851C178.107 26.8823 184.163 42.2918 179.95 57.7267C178.386 63.4597 176.594 69.2898 176.139 75.1662C174.917 91.2161 186.977 101.976 202.892 99.1324C230.589 94.1793 258.22 88.918 285.904 83.8093C303.473 80.5942 311.943 86.321 315.197 103.882C330.864 188.171 346.488 272.425 362.034 356.685C365.285 374.207 359.826 382.143 342.415 385.384C258.135 401.008 173.817 416.635 89.5335 432.22C72.0837 435.464 63.4812 429.552 60.1977 412.111C55.276 385.753 50.39 359.353 45.5429 332.95C43.6171 322.451 46.5744 319.816 57.25 321.403C67.9256 322.989 78.8822 326.081 89.3295 324.904C109.491 322.69 124.767 306.419 128.46 286.599C132.078 267.295 123.213 247.297 106.474 236.846C89.3236 226.154 67.8494 227.184 51.4865 239.312C47.7568 242.089 43.9072 244.837 39.86 247.092C34.2809 250.256 29.9836 248.535 28.7943 242.206C22.1199 206.932 15.6399 171.642 8.902 135.123C8.89627 135.092 8.93276 135.07 8.95693 135.091Z" fill="#00A1E5"/>
<mask id="mask0_18_576" style="mask-type:alpha" maskUnits="userSpaceOnUse" x="8" y="15" width="355" height="419">
<path d="M8.95644 135.091C8.96418 135.097 8.97445 135.1 8.9844 135.098C20.4449 132.977 30.904 131.055 41.3211 129.097C65.9156 124.557 90.5132 120.056 115.098 115.399C132.7 112.103 140.101 97.306 131.86 81.5286C129.346 76.7204 125.929 72.3786 122.744 67.9787C113.144 54.743 113.662 38.2418 124.162 26.3236C134.27 14.8688 151.2 11.9809 164.717 19.4851C178.107 26.8823 184.162 42.2918 179.95 57.7267C178.385 63.4597 176.593 69.2898 176.138 75.1662C174.916 91.2161 186.977 101.976 202.892 99.1324C230.588 94.1793 258.22 88.918 285.903 83.8093C303.473 80.5942 311.943 86.321 315.197 103.882C330.863 188.171 346.488 272.425 362.034 356.685C365.285 374.207 359.826 382.143 342.415 385.384C258.135 401.008 173.816 416.635 89.533 432.22C72.0833 435.464 63.4807 429.552 60.1973 412.111C55.2755 385.753 50.3895 359.353 45.5424 332.95C43.6166 322.451 46.574 319.816 57.2495 321.403C67.9251 322.989 78.8817 326.081 89.329 324.904C109.49 322.69 124.766 306.419 128.459 286.599C132.078 267.295 123.213 247.297 106.474 236.846C89.3231 226.154 67.8489 227.184 51.486 239.312C47.7563 242.089 43.9067 244.837 39.8595 247.092C34.2804 250.256 29.9831 248.535 28.7938 242.206C22.1195 206.932 15.6394 171.642 8.90151 135.123C8.89578 135.092 8.93227 135.07 8.95644 135.091Z" fill="#00A1E5"/>
</mask>
<g mask="url(#mask0_18_576)">
<g clip-path="url(#clip0_18_576)">
<path d="M187.779 240.531C184.688 240.531 181.704 239.501 179.217 237.547C176.303 235.237 174.491 231.968 174.065 228.309C173.638 224.649 174.669 221.025 176.943 218.112C179.252 215.198 182.521 213.386 186.181 212.96C189.84 212.533 193.464 213.564 196.378 215.838C199.291 218.147 201.103 221.416 201.53 225.076C201.956 228.735 200.926 232.359 198.652 235.273C196.342 238.186 193.073 239.998 189.414 240.425C188.881 240.496 188.312 240.531 187.779 240.531ZM187.815 216.406C187.424 216.406 186.998 216.406 186.607 216.477C183.871 216.797 181.42 218.147 179.714 220.315C178.009 222.482 177.262 225.147 177.547 227.882C177.866 230.618 179.217 233.07 181.384 234.775C183.551 236.481 186.252 237.227 188.952 236.943C191.688 236.623 194.139 235.273 195.845 233.105C197.55 230.938 198.296 228.273 198.012 225.537C197.692 222.802 196.342 220.35 194.175 218.645C192.327 217.188 190.124 216.406 187.815 216.406Z" fill="#FEFBF3"/>
<path d="M214.747 284.02L214.534 282.244L213.432 282.386L211.016 261.743C210.412 256.697 207.925 252.15 203.91 249.023C199.931 245.861 194.957 244.44 189.876 245.044C179.465 246.252 171.968 255.738 173.176 266.184L174.989 281.711L171.471 282.137L169.659 266.61C168.948 260.606 170.654 254.708 174.385 249.982C178.115 245.257 183.48 242.237 189.485 241.562C195.49 240.851 201.388 242.556 206.149 246.287C210.874 250.053 213.859 255.418 214.569 261.387L217.199 283.807L214.747 284.091V284.02Z" fill="#FEFBF3"/>
<path d="M222.741 238.719C216.843 238.719 211.727 234.278 211.016 228.273C210.661 225.147 211.514 222.055 213.503 219.568C215.458 217.081 218.265 215.518 221.391 215.163C224.518 214.807 227.609 215.66 230.096 217.65C232.583 219.604 234.147 222.411 234.502 225.537C234.857 228.664 234.004 231.755 232.015 234.242C230.061 236.729 227.254 238.293 224.127 238.648C223.665 238.719 223.203 238.719 222.741 238.719ZM222.741 218.645C222.422 218.645 222.102 218.645 221.782 218.716C219.579 218.964 217.625 220.066 216.275 221.807C214.889 223.548 214.285 225.715 214.534 227.882C215.067 232.395 219.153 235.664 223.701 235.131C225.904 234.882 227.858 233.78 229.208 232.039C230.594 230.298 231.198 228.131 230.949 225.964C230.7 223.761 229.599 221.807 227.858 220.421C226.365 219.249 224.589 218.645 222.741 218.645Z" fill="#FEFBF3"/>
<path d="M219.579 271.656L217.98 258.119C217.483 253.891 215.671 250.053 212.686 246.962L211.478 245.719L212.686 244.475C215.742 241.384 219.757 239.394 224.091 238.897C234.573 237.689 244.059 245.221 245.303 255.667L246.795 268.458L219.579 271.62V271.656ZM216.488 245.861C219.295 249.236 221 253.322 221.533 257.692L222.706 267.676L242.887 265.331L241.821 256.093C240.826 247.566 233.08 241.455 224.553 242.45C221.569 242.805 218.797 243.978 216.523 245.861H216.488Z" fill="#FEFBF3"/>
<path d="M153.812 246.749C151.148 246.749 148.625 245.861 146.493 244.191C144.006 242.237 142.443 239.43 142.087 236.303C141.732 233.176 142.585 230.085 144.575 227.598C146.529 225.111 149.336 223.548 152.462 223.192C158.964 222.446 164.827 227.101 165.573 233.567C165.928 236.694 165.075 239.785 163.086 242.272C161.132 244.759 158.325 246.323 155.198 246.678C154.736 246.749 154.274 246.749 153.812 246.749ZM153.812 226.674C153.493 226.674 153.173 226.674 152.853 226.745C150.65 226.994 148.696 228.095 147.346 229.836C145.96 231.577 145.356 233.745 145.605 235.912C145.854 238.115 146.955 240.069 148.696 241.455C150.437 242.841 152.604 243.445 154.772 243.196C156.975 242.947 158.929 241.846 160.279 240.105C161.665 238.364 162.269 236.196 162.02 234.029C161.522 229.836 157.934 226.71 153.812 226.71V226.674Z" fill="#FEFBF3"/>
<path d="M164.827 215.767C160.315 215.767 156.442 212.391 155.909 207.808C155.625 205.427 156.3 203.082 157.792 201.199C159.284 199.316 161.416 198.108 163.797 197.859C166.177 197.575 168.522 198.25 170.405 199.742C172.288 201.235 173.496 203.366 173.745 205.747C174.029 208.128 173.354 210.473 171.862 212.356C170.37 214.239 168.238 215.447 165.857 215.695C165.502 215.731 165.147 215.767 164.827 215.767ZM159.426 207.417C159.782 210.401 162.482 212.533 165.466 212.178C166.923 212 168.202 211.29 169.091 210.153C169.979 209.016 170.405 207.595 170.228 206.138C170.05 204.681 169.339 203.402 168.202 202.514C167.065 201.625 165.609 201.199 164.187 201.377C162.731 201.554 161.452 202.265 160.563 203.402C159.675 204.539 159.249 205.96 159.426 207.417Z" fill="#FEFBF3"/>
<path d="M183.836 201.661C179.323 201.661 175.45 198.286 174.917 193.702C174.349 188.764 177.902 184.287 182.805 183.718C187.744 183.15 192.221 186.667 192.789 191.606C193.358 196.545 189.84 201.021 184.901 201.59C184.546 201.625 184.191 201.661 183.871 201.661H183.836ZM178.435 193.311C178.79 196.296 181.491 198.428 184.475 198.072C185.932 197.895 187.211 197.184 188.099 196.047C188.987 194.91 189.414 193.489 189.236 192.032C188.881 189.048 186.181 186.916 183.196 187.271C180.211 187.627 178.08 190.327 178.435 193.311Z" fill="#FEFBF3"/>
<path d="M205.545 211.006C203.519 211.006 201.601 210.33 200.002 209.051C198.119 207.559 196.911 205.427 196.662 203.047C196.378 200.666 197.053 198.321 198.545 196.438C200.037 194.555 202.169 193.347 204.55 193.098C206.93 192.814 209.275 193.489 211.158 194.981C213.041 196.474 214.25 198.605 214.498 200.986C214.782 203.367 214.107 205.712 212.615 207.595C211.123 209.478 208.991 210.686 206.611 210.935C206.255 210.97 205.9 211.006 205.545 211.006ZM200.144 202.656C200.322 204.113 201.032 205.392 202.169 206.28C203.306 207.168 204.763 207.595 206.184 207.417C207.641 207.239 208.92 206.529 209.808 205.392C210.696 204.255 211.123 202.834 210.945 201.377C210.768 199.92 210.057 198.641 208.92 197.753C207.783 196.865 206.362 196.438 204.905 196.616C203.448 196.793 202.169 197.504 201.281 198.641C200.393 199.778 199.966 201.199 200.144 202.656Z" fill="#FEFBF3"/>
<path d="M139.956 280.929L138.463 268.138C137.255 257.657 144.752 248.17 155.234 246.927C159.533 246.429 163.939 247.424 167.598 249.734L169.055 250.657L168.167 252.15C165.999 255.809 165.111 260.002 165.573 264.194L167.136 277.731L139.92 280.894L139.956 280.929ZM155.66 250.48C147.133 251.475 141.022 259.22 142.016 267.747L143.082 276.985L163.264 274.64L162.091 264.656C161.594 260.251 162.34 255.916 164.294 251.972C161.629 250.657 158.68 250.16 155.696 250.515L155.66 250.48Z" fill="#FEFBF3"/>
<path d="M154.208 296.499L152.003 299.285L176.691 318.817L178.895 316.031L154.208 296.499Z" fill="#FEFBF3"/>
<path d="M171.364 328.469L168.593 326.266L176.445 316.317C178.222 314.079 180.851 312.622 183.693 312.302L206.042 309.744C213.255 308.927 220.112 306.156 225.903 301.75L243.242 288.568C244.948 287.289 245.338 284.873 244.166 283.132C242.993 281.356 240.613 280.823 238.801 281.888L229.172 287.467C222.386 291.411 214.996 294.111 207.285 295.497L192.256 298.197L191.617 294.715L206.646 292.015C213.965 290.7 220.965 288.142 227.396 284.411L237.024 278.833C240.471 276.843 244.912 277.874 247.15 281.178C249.353 284.518 248.607 288.995 245.445 291.411L228.106 304.592C221.817 309.389 214.356 312.373 206.504 313.297L184.155 315.855C182.272 316.069 180.496 317.063 179.288 318.556L171.435 328.504L171.364 328.469Z" fill="#FEFBF3"/>
<path d="M143.615 312.764L140.844 310.561L157.117 290.025C163.725 281.64 174.349 277.838 184.795 280.076C190.337 281.284 196.058 281.675 201.707 281.32L214.463 280.503C218.975 280.183 223.061 283.239 224.056 287.715L224.162 288.213L220.716 288.994L220.609 288.497C220.005 285.761 217.554 283.878 214.711 284.056L201.956 284.873C195.951 285.264 189.947 284.837 184.084 283.558C174.988 281.604 165.715 284.908 159.959 292.228L143.686 312.764H143.615Z" fill="#FEFBF3"/>
<path d="M189.911 350C139.92 350 96.6085 312.444 90.675 261.565C84.2795 206.813 123.647 157.07 178.435 150.675C233.187 144.28 282.929 183.647 289.325 238.435C295.72 293.187 256.353 342.965 201.565 349.325C197.657 349.787 193.748 350 189.911 350ZM190.053 153.553C186.358 153.553 182.592 153.766 178.826 154.192C153.244 157.177 130.362 169.932 114.374 190.149C98.385 210.366 91.2079 235.592 94.1925 261.174C100.339 314.008 148.341 351.954 201.139 345.807C253.972 339.661 291.919 291.659 285.772 238.861C280.087 189.794 238.303 153.553 190.053 153.553Z" fill="#FEFBF3"/>
<path d="M189.982 331.453C145.214 331.453 108.795 294.893 108.795 249.982C108.795 205.072 145.214 168.547 189.982 168.547C234.75 168.547 271.169 205.108 271.169 250.018C271.169 294.928 234.75 331.489 189.982 331.489V331.453ZM189.982 172.064C147.168 172.064 112.348 207.026 112.348 249.982C112.348 292.938 147.168 327.9 189.982 327.9C232.796 327.9 267.616 292.938 267.616 249.982C267.616 207.026 232.832 172.1 189.982 172.1V172.064Z" fill="#FEFBF3"/>
</g>
<path d="M134.791 64.9998C112.26 64.9998 90.5694 57.4409 72.7129 43.2361C51.8255 26.5846 38.6431 2.81248 35.6488 -23.7349C29.4045 -78.5094 68.9517 -128.135 123.726 -134.343C150.274 -137.374 176.383 -129.851 197.27 -113.2C218.157 -96.5485 231.34 -72.7763 234.334 -46.2655C237.329 -19.7181 229.843 6.39108 213.191 27.2784C196.54 48.1658 172.768 61.3482 146.22 64.3425C142.386 64.7807 138.552 64.9998 134.754 64.9998H134.791ZM135.192 -131.349C131.541 -131.349 127.853 -131.129 124.128 -130.728C71.3618 -124.739 33.2752 -76.9027 39.2639 -24.1366C42.1487 1.42488 54.8564 24.3571 74.9769 40.3513C95.0974 56.382 120.257 63.6122 145.855 60.7274C171.417 57.8426 194.349 45.1349 210.379 25.0144C226.41 4.89392 233.64 -20.3024 230.756 -45.8638C227.871 -71.4252 215.163 -94.3575 195.043 -110.388C177.807 -124.082 156.92 -131.385 135.229 -131.385L135.192 -131.349Z" fill="#FEFBF3"/>
<path d="M134.974 48.7501C88.9629 48.7501 51.5337 11.1748 51.5337 -34.9819C51.5337 -81.1385 88.9629 -118.714 134.974 -118.714C180.984 -118.714 218.413 -81.1385 218.413 -34.9819C218.413 11.1748 180.984 48.7501 134.974 48.7501ZM134.974 -115.062C90.9713 -115.062 55.1853 -79.1301 55.1853 -34.9819C55.1853 9.16637 90.9713 45.0984 134.974 45.0984C178.976 45.0984 214.762 9.16637 214.762 -34.9819C214.762 -79.1301 179.012 -115.062 134.974 -115.062Z" fill="#FEFBF3"/>
</g>
<defs>
<clipPath id="clip0_18_576">
<rect width="200" height="200" fill="white" transform="translate(90 150)"/>
</clipPath>
</defs>
</svg>
