<svg width="334" height="411" viewBox="0 0 334 411" fill="none" xmlns="http://www.w3.org/2000/svg">
<path d="M333.933 303.04C333.926 303.033 333.916 303.029 333.906 303.03C322.31 304.201 311.728 305.255 301.185 306.348C276.3 308.848 251.415 311.308 226.531 313.925C208.717 315.76 200.122 329.897 207.037 346.3C209.146 351.299 212.194 355.907 215.006 360.555C223.483 374.536 221.608 390.938 210.162 401.951C199.146 412.535 182.035 414.019 169.182 405.427C156.447 396.952 151.681 381.097 157.15 366.061C159.182 360.476 161.447 354.814 162.385 348.995C164.924 333.1 153.79 321.384 137.695 322.907C109.685 325.563 81.7144 328.531 53.7044 331.342C35.9296 333.1 27.9602 326.695 26.1632 308.926C17.4906 223.633 8.85711 138.379 0.301738 53.1246C-1.49528 35.3943 4.59895 27.9351 22.2175 26.1386C107.498 17.5078 192.817 8.87691 278.097 0.285114C295.755 -1.51137 303.841 5.0887 305.677 22.7409C308.412 49.4145 311.108 76.1272 313.764 102.84C314.819 113.462 311.654 115.845 301.146 113.384C290.637 110.924 279.972 106.94 269.464 107.253C249.189 107.8 232.625 122.757 227.312 142.206C222.116 161.147 229.304 181.806 245.126 193.6C261.338 205.668 282.824 206.41 300.13 195.67C304.076 193.21 308.139 190.789 312.358 188.875C318.178 186.18 322.319 188.25 322.984 194.655C326.731 230.359 330.283 266.062 333.991 303.013C333.994 303.044 333.956 303.062 333.933 303.04Z" fill="#AA1824"/>
<mask id="mask0_18_380" style="mask-type:alpha" maskUnits="userSpaceOnUse" x="0" y="0" width="334" height="411">
<path d="M333.933 303.04C333.926 303.033 333.916 303.029 333.906 303.03C322.31 304.201 311.728 305.255 301.185 306.348C276.3 308.848 251.415 311.308 226.531 313.925C208.717 315.76 200.122 329.897 207.037 346.3C209.146 351.299 212.194 355.907 215.006 360.555C223.483 374.536 221.608 390.938 210.162 401.951C199.146 412.535 182.035 414.019 169.182 405.427C156.447 396.952 151.681 381.097 157.15 366.061C159.182 360.476 161.447 354.814 162.385 348.995C164.924 333.1 153.79 321.384 137.695 322.907C109.685 325.563 81.7144 328.531 53.7044 331.342C35.9296 333.1 27.9602 326.695 26.1632 308.926C17.4906 223.633 8.85711 138.379 0.301738 53.1246C-1.49528 35.3943 4.59895 27.9351 22.2175 26.1386C107.498 17.5078 192.817 8.87691 278.097 0.285114C295.755 -1.51137 303.841 5.0887 305.677 22.7409C308.412 49.4145 311.108 76.1272 313.764 102.84C314.819 113.462 311.654 115.845 301.146 113.384C290.637 110.924 279.972 106.94 269.464 107.253C249.189 107.8 232.625 122.757 227.312 142.206C222.116 161.147 229.304 181.806 245.126 193.6C261.338 205.668 282.824 206.41 300.13 195.67C304.076 193.21 308.139 190.789 312.358 188.875C318.178 186.18 322.319 188.25 322.984 194.655C326.731 230.359 330.283 266.062 333.991 303.013C333.994 303.044 333.956 303.062 333.933 303.04Z" fill="#AA1824"/>
</mask>
<g mask="url(#mask0_18_380)">
<path d="M196.791 565C174.26 565 152.569 557.441 134.713 543.236C113.825 526.585 100.643 502.812 97.6487 476.265C91.4044 421.491 130.952 371.865 185.726 365.657C212.273 362.626 238.383 370.149 259.27 386.8C280.157 403.452 293.34 427.224 296.334 453.735C299.328 480.282 291.843 506.391 275.191 527.278C258.54 548.166 234.768 561.348 208.22 564.343C204.386 564.781 200.552 565 196.754 565H196.791ZM197.192 368.651C193.541 368.651 189.852 368.871 186.128 369.272C133.362 375.261 95.2751 423.097 101.264 475.863C104.149 501.425 116.856 524.357 136.977 540.351C157.097 556.382 182.257 563.612 207.855 560.727C233.416 557.843 256.349 545.135 272.379 525.014C288.41 504.894 295.64 479.698 292.755 454.136C289.871 428.575 277.163 405.643 257.042 389.612C239.807 375.918 218.919 368.615 197.229 368.615L197.192 368.651Z" fill="#FEFBF3"/>
<path d="M196.973 548.75C150.963 548.75 113.533 511.175 113.533 465.018C113.533 418.861 150.963 381.286 196.973 381.286C242.984 381.286 280.413 418.861 280.413 465.018C280.413 511.175 242.984 548.75 196.973 548.75ZM196.973 384.938C152.971 384.938 117.185 420.87 117.185 465.018C117.185 509.166 152.971 545.098 196.973 545.098C240.975 545.098 276.762 509.166 276.762 465.018C276.762 420.87 241.012 384.938 196.973 384.938Z" fill="#FEFBF3"/>
<g clip-path="url(#clip0_18_380)">
<path d="M178.088 276.384C155.702 278.927 133.296 273.865 113.95 261.766C91.3171 247.579 75.5356 225.447 69.5638 199.407C57.1767 145.687 90.8696 91.9147 144.593 79.5639C170.629 73.5558 197.42 78.083 220.054 92.2703C242.687 106.458 258.469 128.59 264.436 154.593C270.408 180.633 265.917 207.42 251.73 230.054C237.542 252.687 215.41 268.469 189.371 274.44C185.61 275.309 181.825 275.959 178.052 276.388L178.088 276.384ZM156.324 81.2448C152.696 81.657 149.056 82.291 145.4 83.1105C93.6476 95.017 61.204 146.847 73.1105 198.6C78.8621 223.672 94.0771 245.023 115.874 258.644C137.676 272.301 163.491 276.645 188.6 270.89C213.672 265.138 235.023 249.923 248.68 228.122C262.338 206.32 266.678 180.469 260.926 155.396C255.174 130.324 239.959 108.973 218.158 95.3155C199.487 83.6549 177.908 78.756 156.356 81.2044L156.324 81.2448Z" fill="#FEFBF3"/>
<path d="M176.435 260.217C130.719 265.411 89.2873 232.3 84.0773 186.439C78.8673 140.577 111.816 99.0171 157.533 93.8236C203.249 88.63 244.681 121.74 249.89 167.602C255.1 213.464 222.152 255.024 176.435 260.217ZM157.945 97.4519C114.224 102.419 82.7223 142.16 87.7056 186.027C92.6889 229.893 132.302 261.556 176.023 256.589C219.744 251.622 251.246 211.88 246.262 168.014C241.279 124.148 201.702 92.4809 157.945 97.4519Z" fill="#FEFBF3"/>
<path d="M173.324 232.823C160.407 234.291 148.689 224.964 147.222 212.047C145.755 199.13 164.33 173.389 165.085 172.274C165.688 171.434 166.994 171.286 167.77 171.969C168.793 172.882 192.678 194.204 194.1 206.722C195.522 219.239 186.24 231.356 173.324 232.823ZM166.873 176.04C161.171 184.406 149.837 203.04 150.814 211.639C152.059 222.597 161.958 230.476 172.916 229.231C183.873 227.986 191.752 218.087 190.508 207.13C189.531 198.531 174.306 182.914 166.873 176.04Z" fill="#FEFBF3"/>
<path d="M173.324 232.823C167.954 233.433 163.105 229.574 162.495 224.204C161.947 219.378 168.039 210.564 169.24 208.848C169.843 208.007 171.149 207.859 171.925 208.543C173.517 209.942 181.395 217.169 181.943 221.995C182.553 227.365 178.694 232.213 173.324 232.823ZM171.032 212.65C168.561 216.459 165.836 221.583 166.087 223.796C166.471 227.17 169.541 229.615 172.916 229.231C176.29 228.848 178.734 225.777 178.351 222.403C178.104 220.226 174.33 215.803 171.032 212.65Z" fill="#FEFBF3"/>
<path d="M173.484 234.238C150.807 236.815 130.278 220.44 127.702 197.764C126.123 183.867 126.218 168.531 137.529 150.341C137.935 149.706 138.632 149.37 139.382 149.505C140.096 149.645 140.67 150.167 140.829 150.921C141.726 154.935 143.287 158.323 145.536 160.971C146.13 161.675 146.749 162.266 147.278 162.721C147.259 161.584 147.284 160.184 147.361 158.595C147.942 147.541 151.563 127.651 169.45 118.82C170.042 118.532 170.748 118.599 171.305 118.977C171.863 119.355 172.123 120.023 172.047 120.657C170.79 130.943 179.455 146.717 184.759 155.229C186.333 157.769 187.75 159.887 188.717 161.284C188.962 160.852 189.235 160.343 189.464 159.766C190.361 157.312 190.257 154.457 189.12 151.242C188.848 150.464 189.152 149.584 189.837 149.139C190.521 148.694 191.449 148.772 192.063 149.327C207.2 163.521 208.854 178.401 209.831 187.331L209.955 188.419C212.531 211.096 196.161 231.662 173.484 234.238ZM138.486 155.855C130.344 170.561 129.686 183.205 131.294 197.355C133.647 218.073 152.395 232.996 173.076 230.646C193.757 228.297 208.717 209.545 206.363 188.827L206.239 187.739C205.386 180.228 204.09 168.174 193.653 156.203C193.661 157.893 193.403 159.502 192.838 161C191.748 164.027 189.897 165.523 189.696 165.693C189.326 165.993 188.826 166.123 188.342 166.068C187.858 166.012 187.422 165.731 187.122 165.361C187.033 165.224 184.687 162.036 181.67 157.16C175.597 147.376 168.681 134.049 168.304 123.618C154.438 132.249 151.471 149.161 150.986 158.808C150.779 163.132 151.032 166.006 151.037 166.042C151.107 166.659 150.81 167.281 150.303 167.669C149.795 168.058 149.106 168.136 148.525 167.871C148.408 167.811 145.63 166.657 142.747 163.272C140.959 161.123 139.501 158.643 138.478 155.782L138.486 155.855Z" fill="#FEFBF3"/>
</g>
</g>
<defs>
<clipPath id="clip0_18_380">
<rect width="200" height="200" fill="white" transform="translate(56.3516 88.9268) rotate(-6.48116)"/>
</clipPath>
</defs>
</svg>
