<svg width="411" height="334" viewBox="0 0 411 334" fill="none" xmlns="http://www.w3.org/2000/svg">
<path d="M107.96 333.933C107.967 333.926 107.971 333.916 107.97 333.906C106.799 322.31 105.745 311.728 104.652 301.185C102.152 276.3 99.692 251.415 97.0754 226.531C95.2399 208.717 81.1025 200.122 64.7 207.037C59.7011 209.146 55.0928 212.194 50.4454 215.006C36.4643 223.483 20.0617 221.608 9.04863 210.162C-1.53489 199.146 -3.01892 182.035 5.57287 169.182C14.0475 156.447 29.9033 151.681 44.9389 157.15C50.5236 159.182 56.1863 161.447 62.0053 162.385C77.9001 164.924 89.6162 153.79 88.0931 137.695C85.4375 109.685 82.4694 81.7144 79.6575 53.7044C77.9001 35.9296 84.3049 27.9602 102.074 26.1632C187.367 17.4906 272.621 8.85712 357.875 0.301754C375.606 -1.49526 383.065 4.59897 384.861 22.2176C393.492 107.498 402.123 192.817 410.715 278.097C412.511 295.755 405.911 303.841 388.259 305.677C361.585 308.412 334.873 311.108 308.16 313.764C297.538 314.819 295.155 311.655 297.616 301.146C300.076 290.637 304.06 279.972 303.747 269.464C303.2 249.189 288.243 232.625 268.794 227.312C249.853 222.116 229.194 229.304 217.4 245.126C205.332 261.338 204.59 282.824 215.33 300.13C217.79 304.076 220.211 308.139 222.125 312.358C224.82 318.178 222.75 322.319 216.345 322.984C180.641 326.731 144.938 330.283 107.987 333.991C107.956 333.994 107.938 333.956 107.96 333.933Z" fill="#E3813B"/>
<mask id="mask0_18_502" style="mask-type:alpha" maskUnits="userSpaceOnUse" x="0" y="0" width="411" height="334">
<path d="M107.96 333.933C107.967 333.926 107.971 333.916 107.97 333.906C106.799 322.31 105.745 311.728 104.652 301.185C102.152 276.3 99.692 251.415 97.0754 226.531C95.2399 208.717 81.1025 200.122 64.7 207.037C59.7011 209.146 55.0928 212.194 50.4454 215.006C36.4643 223.483 20.0617 221.608 9.04863 210.162C-1.53489 199.146 -3.01892 182.035 5.57287 169.182C14.0475 156.447 29.9033 151.681 44.9389 157.15C50.5236 159.182 56.1863 161.447 62.0053 162.385C77.9001 164.924 89.6162 153.79 88.0931 137.695C85.4375 109.685 82.4694 81.7144 79.6575 53.7044C77.9001 35.9296 84.3049 27.9602 102.074 26.1632C187.367 17.4906 272.621 8.85712 357.875 0.301754C375.606 -1.49526 383.065 4.59897 384.861 22.2176C393.492 107.498 402.123 192.817 410.715 278.097C412.511 295.755 405.911 303.841 388.259 305.677C361.585 308.412 334.873 311.108 308.16 313.764C297.538 314.819 295.155 311.655 297.616 301.146C300.076 290.637 304.06 279.972 303.747 269.464C303.2 249.189 288.243 232.625 268.794 227.312C249.853 222.116 229.194 229.304 217.4 245.126C205.332 261.338 204.59 282.824 215.33 300.13C217.79 304.076 220.211 308.139 222.125 312.358C224.82 318.178 222.75 322.319 216.345 322.984C180.641 326.731 144.938 330.283 107.987 333.991C107.956 333.994 107.938 333.956 107.96 333.933Z" fill="#E3813B"/>
</mask>
<g mask="url(#mask0_18_502)">
<g clip-path="url(#clip0_18_502)">
<path d="M238.8 256C216.828 256 195.622 248.822 177.951 235.195C156.781 218.871 143.263 195.297 139.838 168.807C136.413 142.318 143.518 116.084 159.805 94.9507C176.129 73.7811 199.703 60.2631 226.193 56.8381C280.884 49.8058 331.093 88.5014 338.162 143.193C341.587 169.682 334.482 195.916 318.195 217.049C301.871 238.219 278.333 251.737 251.844 255.162C247.508 255.709 243.135 256 238.836 256H238.8ZM239.2 59.6437C235.047 59.6437 230.856 59.8987 226.666 60.4453C201.161 63.761 178.424 76.7689 162.72 97.1733C146.98 117.541 140.166 142.828 143.445 168.334C146.761 193.839 159.769 216.576 180.173 232.28C200.541 247.984 225.828 254.834 251.37 251.518C276.876 248.203 299.612 235.195 315.316 214.79C331.02 194.422 337.87 169.135 334.555 143.593C331.239 118.088 318.231 95.3515 297.827 79.6473C280.811 66.5666 260.37 59.6437 239.2 59.6437Z" fill="#FEFBF3"/>
<path d="M224.517 220.438L223.278 219.199C223.023 218.944 197.954 193.001 198.282 155.508C198.574 124.428 216.719 107.12 226.484 97.8291C228.634 95.7887 230.31 94.1854 231.257 92.9466L233.371 90.2139L234.063 93.566C234.136 93.894 241.277 127.889 243.828 134.703C246.051 140.642 252.864 166.694 245.54 185.605C238.617 203.422 226.156 218.434 225.646 219.053L224.517 220.402V220.438ZM231.622 97.2825C230.784 98.1206 229.8 99.0679 228.707 100.125C219.306 109.088 201.78 125.776 201.489 155.508C201.197 186.953 219.452 210.017 224.371 215.628C227.614 211.475 237.087 198.758 242.625 184.512C249.585 166.512 243.026 141.553 240.913 135.869C238.727 129.966 233.48 105.918 231.658 97.2825H231.622Z" fill="#FEFBF3"/>
<path d="M222.84 218.07C222.84 218.07 222.695 202.475 220.691 160.719C218.687 118.525 230.601 94.1855 231.111 93.1653L233.953 94.5863C233.844 94.8414 221.893 119.254 223.861 160.573C225.865 202.402 226.01 217.887 226.01 218.033H222.84V218.07Z" fill="#FEFBF3"/>
<path d="M221.092 144.213C216.355 139.33 207.865 122.97 207.501 122.278L210.306 120.821C210.306 120.821 218.978 137.472 223.351 142.027L221.092 144.249V144.213Z" fill="#FEFBF3"/>
<path d="M222.075 174.054C213.622 169.536 199.849 147.674 199.266 146.763L201.962 145.087C202.108 145.306 215.881 167.168 223.606 171.285L222.112 174.091L222.075 174.054Z" fill="#FEFBF3"/>
<path d="M222.804 196.281C216.063 192.018 200.942 174.419 200.286 173.654L202.691 171.577C202.691 171.577 218.14 189.576 224.48 193.584L222.804 196.281Z" fill="#FEFBF3"/>
<path d="M225.027 201.236L222.84 198.94C222.84 198.94 240.403 182.18 245.686 168.953L248.637 170.119C243.063 183.965 225.755 200.544 225.027 201.236Z" fill="#FEFBF3"/>
<path d="M224.261 183.637L222.221 181.196C230.966 173.908 244.301 161.338 245.285 156.565L248.382 157.184C246.888 164.617 226.557 181.706 224.261 183.637Z" fill="#FEFBF3"/>
<path d="M223.387 165.565L221.492 163.014C221.492 163.014 238.362 150.407 242.917 141.261L245.759 142.683C240.876 152.484 224.116 165.018 223.387 165.565Z" fill="#FEFBF3"/>
<path d="M223.314 138.93L221.82 136.124C221.82 136.124 232.496 130.258 236.905 119.728L239.82 120.966C234.937 132.59 223.788 138.675 223.314 138.93Z" fill="#FEFBF3"/>
<path d="M217.156 210.782C212.638 210.236 208.047 209.216 203.493 207.758L202.327 207.394L202.4 206.191C202.4 205.973 202.764 200.544 206.517 192.09L209.395 193.366C206.918 199.013 206.007 203.203 205.715 205.135C209.65 206.337 213.586 207.175 217.521 207.649L217.156 210.782Z" fill="#FEFBF3"/>
<path d="M231.33 210.782L230.966 207.649C253.739 205.062 270.317 190.268 275.783 185.386C284.054 178.026 293.819 158.751 295.094 154.269C296.114 150.589 300.232 141.043 302.309 136.27C298.883 136.925 292.835 138.018 286.021 139.075C284.527 139.294 282.924 139.512 281.285 139.731C271.593 141.043 259.568 142.646 249.366 149.569C248.528 150.115 247.727 150.698 246.925 151.245L245.103 148.658C245.905 148.075 246.743 147.528 247.581 146.945C258.403 139.585 270.864 137.909 280.884 136.561C282.487 136.342 284.054 136.124 285.548 135.905C296.005 134.338 304.568 132.553 304.677 132.553L307.701 131.934L306.462 134.739C306.462 134.739 299.503 150.407 298.191 155.071C296.807 160.063 286.932 179.702 277.932 187.681C272.285 192.71 255.123 208.013 231.367 210.709L231.33 210.782Z" fill="#FEFBF3"/>
<path d="M251.698 205.062C246.961 205.062 238.071 200.252 237.014 199.669L238.544 196.9C242.407 199.013 249.475 202.22 252.062 201.855L252.5 204.989C252.245 204.989 251.99 205.025 251.698 205.025V205.062Z" fill="#FEFBF3"/>
<path d="M251.334 191.362C245.868 191.362 242.188 191.289 242.079 191.289L242.152 188.119C242.152 188.119 259.095 188.52 273.779 187.609L273.961 190.779C266.054 191.252 257.528 191.362 251.297 191.362H251.334Z" fill="#FEFBF3"/>
<path d="M246.998 179.666L245.03 177.188C257.965 166.949 300.487 133.391 304.677 132.59L305.296 135.687C301.944 136.707 267.767 163.196 246.998 179.666Z" fill="#FEFBF3"/>
<path d="M283.121 137.234L278.831 151.239L281.862 152.167L286.152 138.162L283.121 137.234Z" fill="#FEFBF3"/>
<path d="M264.378 165.273H261.208C261.208 159.079 270.39 140.569 271.41 138.492L274.252 139.913C271.52 145.415 264.414 160.646 264.378 165.273Z" fill="#FEFBF3"/>
<path d="M250.131 174.273C248.492 166.184 258.512 144.031 259.641 141.517L262.52 142.828C259.532 149.35 251.99 167.642 253.228 173.617L250.131 174.237V174.273Z" fill="#FEFBF3"/>
<path d="M266.965 176.022C256.508 176.022 253.739 173.508 253.192 172.816L255.597 170.775C255.597 170.775 260.734 175.475 287.625 170.666L288.171 173.799C278.88 175.439 272.03 176.022 266.965 176.022Z" fill="#FEFBF3"/>
<path d="M277.932 160.646C273.341 160.646 271.264 159.917 271.119 159.844L272.248 156.893C272.248 156.893 278.88 159.115 295.677 154.889L296.442 157.949C288.025 160.063 281.977 160.646 277.932 160.646Z" fill="#FEFBF3"/>
<path d="M239.018 239.531C193.108 239.531 155.761 202.038 155.761 155.982C155.761 109.926 193.072 72.4329 239.018 72.4329C284.965 72.4329 322.276 109.926 322.276 155.982C322.276 202.038 284.928 239.531 239.018 239.531ZM239.018 76.0765C195.112 76.0765 159.368 111.93 159.368 155.982C159.368 200.034 195.076 235.887 238.982 235.887C282.888 235.887 318.596 200.034 318.596 155.982C318.596 111.93 282.924 76.0765 239.018 76.0765Z" fill="#FEFBF3"/>
</g>
<path d="M-56.2095 305C-78.7401 305 -100.431 297.441 -118.287 283.236C-139.175 266.585 -152.357 242.812 -155.351 216.265C-161.596 161.491 -122.048 111.865 -67.2739 105.657C-40.7265 102.626 -14.6174 110.149 6.26999 126.8C27.1573 143.452 40.3397 167.224 43.3341 193.735C46.3284 220.282 38.8426 246.391 22.1911 267.278C5.53966 288.166 -18.2325 301.348 -44.7799 304.343C-48.6141 304.781 -52.4483 305 -56.246 305H-56.2095ZM-55.8078 108.651C-59.4594 108.651 -63.1476 108.871 -66.8722 109.272C-119.638 115.261 -157.725 163.097 -151.736 215.863C-148.851 241.425 -136.144 264.357 -116.023 280.351C-95.9027 296.382 -70.743 303.612 -45.145 300.727C-19.5836 297.843 3.34868 285.135 19.3793 265.014C35.41 244.894 42.6403 219.698 39.7555 194.136C36.8707 168.575 24.163 145.643 4.0425 129.612C-13.1932 115.918 -34.0806 108.615 -55.7713 108.615L-55.8078 108.651Z" fill="#FEFBF3"/>
<path d="M-56.0267 288.75C-102.037 288.75 -139.467 251.175 -139.467 205.018C-139.467 158.861 -102.037 121.286 -56.0267 121.286C-10.0161 121.286 27.4131 158.861 27.4131 205.018C27.4131 251.175 -10.0161 288.75 -56.0267 288.75ZM-56.0267 124.938C-100.029 124.938 -135.815 160.87 -135.815 205.018C-135.815 249.166 -100.029 285.098 -56.0267 285.098C-12.0245 285.098 23.7615 249.166 23.7615 205.018C23.7615 160.87 -11.988 124.938 -56.0267 124.938Z" fill="#FEFBF3"/>
</g>
<defs>
<clipPath id="clip0_18_502">
<rect width="200" height="200" fill="white" transform="translate(139 56)"/>
</clipPath>
</defs>
</svg>
