<svg width="334" height="411" viewBox="0 0 334 411" fill="none" xmlns="http://www.w3.org/2000/svg">
<path d="M333.933 303.04C333.926 303.033 333.916 303.029 333.906 303.03C322.31 304.201 311.728 305.255 301.185 306.348C276.3 308.848 251.415 311.308 226.531 313.925C208.717 315.76 200.122 329.897 207.037 346.3C209.146 351.299 212.194 355.907 215.006 360.555C223.483 374.536 221.608 390.938 210.162 401.951C199.146 412.535 182.035 414.019 169.182 405.427C156.447 396.952 151.681 381.097 157.15 366.061C159.182 360.476 161.447 354.814 162.385 348.995C164.924 333.1 153.79 321.384 137.695 322.907C109.685 325.563 81.7144 328.531 53.7044 331.342C35.9296 333.1 27.9602 326.695 26.1632 308.926C17.4906 223.633 8.85711 138.379 0.301738 53.1246C-1.49528 35.3943 4.59895 27.9351 22.2175 26.1386C107.498 17.5078 192.817 8.87691 278.097 0.285114C295.755 -1.51137 303.841 5.0887 305.677 22.7409C308.412 49.4145 311.108 76.1272 313.764 102.84C314.819 113.462 311.654 115.845 301.146 113.384C290.637 110.924 279.972 106.94 269.464 107.253C249.189 107.8 232.625 122.757 227.312 142.206C222.116 161.147 229.304 181.806 245.126 193.6C261.338 205.668 282.824 206.41 300.13 195.67C304.076 193.21 308.139 190.789 312.358 188.875C318.178 186.18 322.319 188.25 322.984 194.655C326.731 230.359 330.283 266.062 333.991 303.013C333.994 303.044 333.956 303.062 333.933 303.04Z" fill="#287BAF"/>
<mask id="mask0_18_641" style="mask-type:alpha" maskUnits="userSpaceOnUse" x="0" y="0" width="334" height="411">
<path d="M333.933 303.04C333.926 303.033 333.916 303.029 333.906 303.03C322.31 304.201 311.728 305.255 301.185 306.348C276.3 308.848 251.415 311.308 226.531 313.925C208.717 315.76 200.122 329.897 207.037 346.3C209.146 351.299 212.194 355.907 215.006 360.555C223.483 374.536 221.608 390.938 210.162 401.951C199.146 412.535 182.035 414.019 169.182 405.427C156.447 396.952 151.681 381.097 157.15 366.061C159.182 360.476 161.447 354.814 162.385 348.995C164.924 333.1 153.79 321.384 137.695 322.907C109.685 325.563 81.7144 328.531 53.7044 331.342C35.9296 333.1 27.9602 326.695 26.1632 308.926C17.4906 223.633 8.85711 138.379 0.301738 53.1246C-1.49528 35.3943 4.59895 27.9351 22.2175 26.1386C107.498 17.5078 192.817 8.87691 278.097 0.285114C295.755 -1.51137 303.841 5.0887 305.677 22.7409C308.412 49.4145 311.108 76.1272 313.764 102.84C314.819 113.462 311.654 115.845 301.146 113.384C290.637 110.924 279.972 106.94 269.464 107.253C249.189 107.8 232.625 122.757 227.312 142.206C222.116 161.147 229.304 181.806 245.126 193.6C261.338 205.668 282.824 206.41 300.13 195.67C304.076 193.21 308.139 190.789 312.358 188.875C318.178 186.18 322.319 188.25 322.984 194.655C326.731 230.359 330.283 266.062 333.991 303.013C333.994 303.044 333.956 303.062 333.933 303.04Z" fill="#287BAF"/>
</mask>
<g mask="url(#mask0_18_641)">
<g clip-path="url(#clip0_18_641)">
<path d="M166.799 264C144.269 264 122.578 256.441 104.722 242.236C83.8342 225.585 70.6518 201.813 67.6574 175.265C61.4131 120.491 100.96 70.8651 155.735 64.6574C182.282 61.6265 208.391 69.1489 229.279 85.8003C250.166 102.452 263.349 126.224 266.343 152.735C269.337 179.282 261.851 205.391 245.2 226.279C228.548 247.166 204.776 260.348 178.229 263.343C174.395 263.781 170.561 264 166.763 264H166.799ZM167.201 67.6517C163.549 67.6517 159.861 67.8708 156.137 68.2725C103.37 74.2612 65.2839 122.098 71.2726 174.864C74.1574 200.425 86.865 223.357 106.986 239.352C127.106 255.382 152.266 262.612 177.864 259.728C203.425 256.843 226.357 244.135 242.388 224.015C258.419 203.894 265.649 178.698 262.764 153.136C259.879 127.575 247.172 104.643 227.051 88.6121C209.816 74.9185 188.928 67.6152 167.238 67.6152L167.201 67.6517Z" fill="#FEFBF3"/>
<path d="M95.2782 123.822L93.459 126.988L236.287 209.052L238.107 205.886L95.2782 123.822Z" fill="#FEFBF3"/>
<path d="M152.777 229.528L149.272 228.506C153.727 212.987 154.274 198.453 150.878 185.271C148.687 176.689 145.291 170.445 142.005 164.42C138.098 157.19 134.044 149.74 132.255 138.603C130.429 127.356 131.379 115.597 135.103 103.693L138.609 104.789C135.067 116.182 134.154 127.356 135.87 138.055C137.586 148.572 141.274 155.437 145.218 162.704C148.614 168.948 152.083 175.411 154.42 184.394C157.962 198.197 157.415 213.388 152.777 229.565V229.528Z" fill="#FEFBF3"/>
<path d="M175.527 226.936L172.021 225.913C176.476 210.394 177.024 195.86 173.628 182.678C171.437 174.097 168.041 167.852 164.754 161.827C160.847 154.597 156.794 147.148 155.004 136.01C153.179 124.763 154.128 113.005 157.853 101.064L161.358 102.159C157.816 113.553 156.903 124.727 158.62 135.426C160.336 145.943 164.024 152.808 167.968 160.074C171.364 166.319 174.833 172.782 177.17 181.765C180.712 195.568 180.164 210.759 175.527 226.936Z" fill="#FEFBF3"/>
<path d="M198.277 224.38L194.771 223.357C199.226 207.838 199.774 193.304 196.378 180.122C194.187 171.541 190.791 165.296 187.504 159.271C183.597 152.041 179.544 144.592 177.754 133.454C175.929 122.207 176.878 110.449 180.603 98.5444L184.108 99.6399C180.566 111.033 179.653 122.207 181.37 132.906C183.086 143.423 186.774 150.288 190.718 157.555C194.114 163.799 197.583 170.263 199.92 179.246C203.462 193.049 202.914 208.24 198.277 224.416V224.38Z" fill="#FEFBF3"/>
<path d="M166.982 247.75C120.971 247.75 83.542 210.175 83.542 164.018C83.542 117.862 120.971 80.2864 166.982 80.2864C212.992 80.2864 250.422 117.862 250.422 164.018C250.422 210.175 212.992 247.75 166.982 247.75ZM166.982 83.938C122.98 83.938 87.1936 119.87 87.1936 164.018C87.1936 208.167 122.98 244.099 166.982 244.099C210.984 244.099 246.77 208.167 246.77 164.018C246.77 119.87 211.021 83.938 166.982 83.938Z" fill="#FEFBF3"/>
</g>
</g>
<mask id="mask1_18_641" style="mask-type:alpha" maskUnits="userSpaceOnUse" x="0" y="0" width="334" height="411">
<path d="M333.933 303.04C333.926 303.033 333.916 303.029 333.906 303.03C322.31 304.201 311.728 305.255 301.185 306.348C276.3 308.848 251.415 311.308 226.531 313.925C208.717 315.76 200.122 329.897 207.037 346.3C209.146 351.299 212.194 355.907 215.006 360.555C223.483 374.536 221.608 390.938 210.162 401.951C199.146 412.535 182.035 414.019 169.182 405.427C156.447 396.952 151.681 381.097 157.15 366.061C159.182 360.476 161.447 354.814 162.385 348.995C164.924 333.1 153.79 321.384 137.695 322.907C109.685 325.563 81.7144 328.531 53.7044 331.342C35.9296 333.1 27.9602 326.695 26.1632 308.926C17.4906 223.633 8.85711 138.379 0.301738 53.1246C-1.49528 35.3943 4.59895 27.9351 22.2175 26.1386C107.498 17.5078 192.817 8.87691 278.097 0.285114C295.755 -1.51137 303.841 5.0887 305.677 22.7409C308.412 49.4145 311.108 76.1272 313.764 102.84C314.819 113.462 311.654 115.845 301.146 113.384C290.637 110.924 279.972 106.94 269.464 107.253C249.189 107.8 232.625 122.757 227.312 142.206C222.116 161.147 229.304 181.806 245.126 193.6C261.338 205.668 282.824 206.41 300.13 195.67C304.076 193.21 308.139 190.789 312.358 188.875C318.178 186.18 322.319 188.25 322.984 194.655C326.731 230.359 330.283 266.062 333.991 303.013C333.994 303.044 333.956 303.062 333.933 303.04Z" fill="#287BAF"/>
</mask>
<g mask="url(#mask1_18_641)">
<path d="M196.791 567C174.26 567 152.569 559.441 134.713 545.236C113.825 528.585 100.643 504.812 97.6487 478.265C91.4044 423.491 130.952 373.865 185.726 367.657C212.273 364.626 238.383 372.149 259.27 388.8C280.157 405.452 293.34 429.224 296.334 455.735C299.328 482.282 291.843 508.391 275.191 529.278C258.54 550.166 234.768 563.348 208.22 566.343C204.386 566.781 200.552 567 196.754 567H196.791ZM197.192 370.651C193.541 370.651 189.852 370.871 186.128 371.272C133.362 377.261 95.2751 425.097 101.264 477.863C104.149 503.425 116.856 526.357 136.977 542.351C157.097 558.382 182.257 565.612 207.855 562.727C233.416 559.843 256.349 547.135 272.379 527.014C288.41 506.894 295.64 481.698 292.755 456.136C289.871 430.575 277.163 407.643 257.042 391.612C239.807 377.918 218.919 370.615 197.229 370.615L197.192 370.651Z" fill="#FEFBF3"/>
<path d="M196.973 550.75C150.962 550.75 113.533 513.175 113.533 467.018C113.533 420.861 150.962 383.286 196.973 383.286C242.984 383.286 280.413 420.861 280.413 467.018C280.413 513.175 242.984 550.75 196.973 550.75ZM196.973 386.938C152.971 386.938 117.185 422.87 117.185 467.018C117.185 511.166 152.971 547.098 196.973 547.098C240.975 547.098 276.761 511.166 276.761 467.018C276.761 422.87 241.012 386.938 196.973 386.938Z" fill="#FEFBF3"/>
</g>
<defs>
<clipPath id="clip0_18_641">
<rect width="200" height="200" fill="white" transform="translate(67 64)"/>
</clipPath>
</defs>
</svg>
