<svg xmlns="http://www.w3.org/2000/svg" width="176" height="217" viewBox="0 0 176 217" fill="none">
  <path d="M175.582 159.415C168.109 160.175 161.191 160.873 154.272 161.571C142.55 162.762 130.827 163.911 119.105 165.122C109.497 166.128 105.001 173.601 108.84 182.408C110.03 185.139 111.714 187.685 113.295 190.23C117.544 197.046 116.169 210.349 106.397 214.414C96.5629 218.52 85.6001 214.825 82.4795 204.93C81.2888 201.173 82.1305 196.677 82.5822 192.571C82.8696 189.922 84.3888 187.418 84.9431 184.769C86.8729 175.51 81.104 169.023 71.7425 169.926C56.879 171.343 42.036 172.924 27.1724 174.402C19.1248 175.203 14.7314 171.712 13.8897 163.603C9.27052 118.233 4.69239 72.8413 0.134788 27.4706C-0.706931 19.0945 2.82418 14.8653 11.1798 14.0236C56.4273 9.44549 101.654 4.86736 146.902 0.309755C155.36 -0.552494 159.753 3.06074 160.636 11.5806C162.094 25.7461 163.51 39.9321 164.927 54.0977C165.522 59.9692 163.941 61.1188 158.111 59.6817C152.732 58.3678 147.251 56.3354 141.872 56.4586C131.197 56.7255 122.513 64.5062 119.659 74.7506C116.908 84.6459 120.644 95.7114 128.856 101.85C137.335 108.194 148.729 108.645 157.762 103.041C159.959 101.686 162.196 100.331 164.557 99.3041C167.452 98.0518 169.464 99.1399 169.792 102.343C171.743 121.127 173.611 139.912 175.582 159.395V159.415Z" fill="gray"/>
</svg>