<svg width="94" height="95" viewBox="0 0 94 95" fill="none" xmlns="http://www.w3.org/2000/svg">
<path opacity="0.8" d="M12.9075 66.3325L11.0278 66.7427L11.9774 68.4104L13.2802 66.9888C13.6043 66.6379 13.9843 66.2773 14.3051 65.9686L14.2922 65.9482C13.8628 66.0668 13.3588 66.2277 12.9075 66.3325Z" fill="white"/>
<path opacity="0.8" d="M86.2769 56.9843L86.6731 55.1062L84.7545 55.2971C84.2829 55.3458 83.7587 55.3596 83.3139 55.3783L83.3066 55.4011C83.7117 55.6017 84.1979 55.8178 84.603 56.0412L86.2769 56.9843Z" fill="white"/>
<path opacity="0.8" d="M33.2268 82.2834C32.9826 82.184 32.7291 82.1092 32.4701 82.0601L31.5635 84.4157C31.749 84.5377 31.9491 84.6361 32.159 84.7082C33.1118 85.0762 33.8685 84.8333 34.1845 84.0153C34.4859 83.2379 34.1035 82.6205 33.2293 82.2793" fill="white"/>
<path opacity="0.8" d="M5.26514 45.2489L9.93033 45.712L10.0348 44.6486L6.23415 44.2742L6.40105 42.6162L10.1993 42.9906L10.3038 41.9306L5.63864 41.4675L5.26514 45.2489Z" fill="white"/>
<path opacity="0.8" d="M9.12674 39.421C9.27601 38.8878 9.21811 38.3176 8.9647 37.8255C8.8524 37.6533 8.70623 37.506 8.53516 37.3924C8.36408 37.2789 8.17169 37.2015 7.96976 37.1651C7.76847 37.1171 7.55895 37.1156 7.35699 37.1606C7.15503 37.2056 6.9659 37.2961 6.80386 37.4251C6.43637 37.7768 6.19849 38.2429 6.12896 38.7475C6.02259 39.2163 5.9527 39.6927 5.91992 40.1723L10.4417 41.1569L10.6637 40.1301L9.02708 39.7718C9.06681 39.6569 9.09955 39.5398 9.12512 39.421H9.12674ZM8.32625 39.2584C8.30403 39.3757 8.26982 39.4903 8.22416 39.6004L6.87273 39.3048C6.87284 39.1567 6.89024 39.0092 6.92458 38.8653C7.03639 38.3494 7.35076 38.1098 7.77288 38.2016C8.24118 38.3039 8.44697 38.7069 8.32625 39.2576" fill="white"/>
<path opacity="0.8" d="M10.425 32.4955C10.1447 32.3699 9.84111 32.3051 9.53409 32.3052C9.22707 32.3053 8.92352 32.3702 8.64328 32.496C8.36303 32.6217 8.1124 32.8053 7.90774 33.0348C7.70309 33.2643 7.54902 33.5344 7.45559 33.8276C7.35022 34.1256 7.30797 34.4424 7.33154 34.7577C7.35512 35.073 7.444 35.3799 7.59251 35.6588C7.74103 35.9377 7.94591 36.1825 8.19409 36.3776C8.44227 36.5727 8.72828 36.7137 9.03389 36.7918C9.31297 36.9181 9.6154 36.9844 9.92161 36.9861C10.2278 36.9879 10.531 36.9251 10.8115 36.802C11.092 36.6789 11.3436 36.4981 11.55 36.2713C11.7564 36.0445 11.9131 35.7768 12.0098 35.4855C12.1247 35.1859 12.1741 34.8651 12.1547 34.5447C12.1352 34.2243 12.0474 33.9117 11.8972 33.6283C11.747 33.3448 11.5378 33.0971 11.2838 32.9016C11.0298 32.7062 10.737 32.5677 10.425 32.4955ZM11.2304 35.1574C10.9986 35.8268 10.2452 36.0274 9.38066 35.726C8.51616 35.4246 8.00897 34.8064 8.2415 34.1273C8.47403 33.4482 9.29477 33.2931 10.0945 33.5693C10.9557 33.8682 11.4629 34.4751 11.2287 35.1582" fill="white"/>
<path opacity="0.8" d="M11.3722 31.687C11.6536 31.9434 11.9031 32.2331 12.1151 32.5497L11.9677 32.9112L13.7752 33.7576L14.1317 33.0322L13.0874 32.4579L14.2986 29.9892L15.3892 30.4653L15.7457 29.7431L13.9778 28.8147L13.7485 29.2208L10.2913 27.5149L8.93262 30.2719L10.0588 30.8267C10.5336 31.0522 10.9755 31.3416 11.3722 31.687ZM10.5927 28.8537L13.251 30.1671L12.5632 31.5652C12.3961 31.3288 12.2043 31.1109 11.9912 30.9153C11.6069 30.5649 11.1734 30.2728 10.7045 30.0485L10.1374 29.7699L10.5927 28.8537Z" fill="white"/>
<path opacity="0.8" d="M15.4001 28.0948L14.5786 27.1533L15.3183 26.0308L16.5198 26.3922L17.1486 25.4361L12.4339 24.0674L11.6675 25.233L14.7941 29.0177L15.4001 28.0948ZM14.0017 26.5887L13.3211 25.8073C13.1413 25.5937 12.882 25.341 12.6859 25.1282L12.6956 25.1177C12.9646 25.2103 13.3017 25.3313 13.5796 25.4166L14.5721 25.7188L14.0017 26.5887Z" fill="white"/>
<path opacity="0.8" d="M16.3971 24.0239C16.6402 24.4439 16.9343 24.8809 17.1409 25.3399L17.8474 24.5357C17.6856 24.2093 17.4999 23.8954 17.2916 23.5966C17.0161 23.1507 16.8427 22.7079 17.2195 22.2774L17.3337 22.1499L18.8034 23.4496L19.4784 22.6876L18.0086 21.3879L18.1196 21.2628C18.4996 20.8298 18.9606 20.9485 19.4387 21.1645C19.7595 21.3344 20.0923 21.4804 20.4344 21.6015L21.145 20.7973C20.6669 20.643 20.2051 20.3912 19.7368 20.193C19.4909 20.0411 19.2041 19.9691 18.9158 19.9868C18.6275 20.0045 18.3517 20.1112 18.1261 20.2921L17.6149 17.7017L16.7998 18.6276L17.4877 20.7973L17.4253 20.8696L15.962 19.5789L15.2912 20.3408L16.7496 21.6341L16.6872 21.7063L14.4575 21.2864L13.6392 22.2189L16.2651 22.4057C16.1235 22.6589 16.0603 22.9487 16.0836 23.238C16.1068 23.5273 16.2154 23.8031 16.3955 24.0304" fill="white"/>
<path opacity="0.8" d="M22.0747 20.0667L21.5481 18.9294L22.5689 18.0562L23.6271 18.7393L24.4908 17.9977L20.3433 15.365L19.2852 16.2707L21.2361 20.7807L22.0747 20.0667ZM20.716 17.2861C20.5985 17.0302 20.4211 16.7174 20.2939 16.4559L20.3036 16.4453C20.5361 16.6167 20.8278 16.823 21.0701 16.9839L21.937 17.5485L21.1486 18.2252L20.716 17.2861Z" fill="white"/>
<path opacity="0.8" d="M26.9153 16.362L25.8969 14.6813L27.3869 13.7683L28.4085 15.449L29.3119 14.9015L26.8691 10.8838L25.9658 11.4345L26.9056 12.9779L25.4124 13.8869L24.479 12.3476L23.5659 12.9024L26.0079 16.916L26.9153 16.362Z" fill="white"/>
<path opacity="0.8" d="M32.7414 13.2863L32.3744 12.4951L30.626 13.3092L30.1585 12.2953L31.723 11.57L31.36 10.7852L29.7979 11.5107L29.3855 10.6244L31.0456 9.856L30.6786 9.06152L28.0527 10.2865L30.0272 14.5471L32.7414 13.2863Z" fill="white"/>
<path opacity="0.8" d="M35.4481 12.4016C35.8423 12.2823 36.2069 12.081 36.5184 11.811L36.0963 11.08C35.8623 11.2686 35.5975 11.415 35.3136 11.5129C34.9268 11.6469 34.5028 11.6214 34.1348 11.4419C33.7668 11.2625 33.4849 10.9438 33.3513 10.556C33.2176 10.1682 33.2431 9.74311 33.4221 9.37415C33.6011 9.00518 33.9189 8.7226 34.3057 8.5886C34.5941 8.48606 34.9006 8.44455 35.2059 8.46673L35.137 7.5967C34.7412 7.57195 34.3447 7.63261 33.9743 7.77459C33.6486 7.86134 33.3448 8.01617 33.083 8.22894C32.8211 8.44172 32.6071 8.70768 32.455 9.00924C32.3029 9.3108 32.2161 9.64117 32.2004 9.97873C32.1846 10.3163 32.2403 10.6534 32.3636 10.9679C32.4505 11.28 32.6038 11.5695 32.8132 11.8164C33.0226 12.0632 33.2829 12.2616 33.5762 12.3977C33.8695 12.5338 34.1888 12.6044 34.512 12.6047C34.8352 12.6049 35.1546 12.5348 35.4481 12.3991" fill="white"/>
<path opacity="0.8" d="M38.8856 11.4748C39.2006 11.4177 39.4997 11.2934 39.7626 11.1104C40.0255 10.9273 40.2461 10.6897 40.4095 10.4137C40.5728 10.1377 40.6751 9.82972 40.7093 9.51062C40.7436 9.19153 40.7091 8.86878 40.6081 8.56424C40.5694 8.25885 40.4669 7.9651 40.3072 7.70214C40.1476 7.43918 39.9344 7.21298 39.6816 7.03826C39.4288 6.86354 39.1421 6.74427 38.8402 6.68823C38.5382 6.63218 38.2279 6.64053 37.9295 6.71292C37.6206 6.77781 37.3285 6.90648 37.0719 7.09072C36.8152 7.27495 36.5996 7.51074 36.4388 7.78305C36.278 8.05537 36.1755 8.35832 36.1378 8.67252C36.1002 8.98672 36.1281 9.30533 36.22 9.6081C36.2582 9.91296 36.3597 10.2064 36.518 10.4695C36.6764 10.7326 36.8879 10.9594 37.1391 11.1355C37.3903 11.3115 37.6755 11.4328 37.9763 11.4915C38.2771 11.5503 38.5869 11.5451 38.8856 11.4764V11.4748ZM38.0802 7.54636C38.794 7.39202 39.3441 8.01264 39.524 8.83633C39.7168 9.72989 39.4616 10.4878 38.7616 10.6389C38.0616 10.79 37.5106 10.2482 37.3105 9.3481C37.1104 8.44805 37.3826 7.7007 38.0802 7.54636Z" fill="white"/>
<path opacity="0.8" d="M42.8258 10.8007C43.4726 10.8025 44.1023 10.5929 44.6196 10.2037C44.7595 10.0723 44.8674 9.91034 44.935 9.73048C45.0026 9.55061 45.028 9.35754 45.0094 9.16625C44.9861 8.89601 44.8704 8.64216 44.6818 8.44764C44.4933 8.25312 44.2435 8.12992 43.9747 8.09889V8.0859C44.1868 8.00375 44.3669 7.85543 44.4884 7.66279C44.61 7.47014 44.6665 7.24338 44.6496 7.01606C44.6333 6.82564 44.5639 6.64372 44.4493 6.49101C44.3347 6.3383 44.1795 6.22098 44.0015 6.15258C43.5563 5.9771 43.0709 5.93037 42.6006 6.01772C42.1433 6.0559 41.69 6.13174 41.2451 6.2444L41.6778 10.8397C42.0612 10.8528 42.445 10.8398 42.8267 10.8007H42.8258ZM43.9002 9.22803C43.9464 9.71542 43.5437 9.94048 43.0657 9.98353C42.9289 10.0012 42.7912 10.0099 42.6533 10.0095L42.5317 8.69029L42.889 8.65697C43.4157 8.60823 43.8548 8.75522 43.9002 9.22555V9.22803ZM42.804 6.77401C43.282 6.72771 43.5696 6.88858 43.6028 7.24681C43.6352 7.59123 43.3598 7.84705 42.8072 7.89661L42.4596 7.92913L42.3583 6.83986C42.5045 6.80345 42.6537 6.78028 42.804 6.77074" fill="white"/>
<path opacity="0.8" d="M45.7495 10.521L48.7384 10.5664L48.7546 9.69644L46.8263 9.66719L46.849 8.55431L48.5715 8.58029L48.5877 7.71353L46.8587 7.68428L46.8789 6.70954L48.7052 6.73879L48.7189 5.86955L45.8249 5.82007L45.7495 10.521Z" fill="white"/>
<path opacity="0.8" d="M50.5785 9.0417C50.6957 9.07094 50.8149 9.09151 50.935 9.10338C51.4801 9.20044 52.0415 9.08422 52.5036 8.77853C52.6618 8.64902 52.7922 8.48864 52.8867 8.30712C52.9813 8.1256 53.0381 7.92666 53.0537 7.72247C53.0809 7.51642 53.0608 7.30684 52.9949 7.10976C52.9291 6.91268 52.8192 6.73327 52.6737 6.5852C52.288 6.2561 51.8026 6.06749 51.2964 6.04994C50.8209 5.9897 50.3412 5.96987 49.8623 5.99064L49.3511 10.5997L50.3954 10.7142L50.5785 9.0417ZM50.8216 6.84837C50.9674 6.83266 51.1146 6.83489 51.2599 6.85492C51.7874 6.91422 52.0556 7.20341 52.0069 7.63313C51.9543 8.10915 51.5775 8.35531 51.0177 8.29602C50.899 8.28457 50.7818 8.26137 50.6677 8.2269L50.8216 6.84837Z" fill="white"/>
<path opacity="0.8" d="M59.6387 7.77637L58.6341 7.52371L57.6975 11.2328L56.5745 10.9476L57.5111 7.23535L56.5024 6.9819L55.5698 10.6951L54.4501 10.4091L55.3859 6.69681L54.3748 6.44336L53.2251 10.9997L58.4931 12.3327L59.6387 7.77637Z" fill="white"/>
<path opacity="0.8" d="M61.9737 13.7712L62.2946 12.9604L60.5105 12.2457L60.9229 11.2075L62.5239 11.8508L62.8415 11.0507L61.2437 10.4066L61.6043 9.50084L63.3033 10.184L63.6241 9.37332L60.9423 8.29614L59.2012 12.655L61.9737 13.7712Z" fill="white"/>
<path opacity="0.8" d="M63.4635 14.515L64.3895 12.7815L65.9289 13.6116L65.0021 15.3452L65.9322 15.8439L68.1522 11.7052L67.222 11.2056L66.3673 12.7945L64.8287 11.9643L65.6834 10.3753L64.7468 9.87012L62.5269 14.0097L63.4635 14.515Z" fill="white"/>
<path opacity="0.8" d="M67.4639 16.8804L68.6031 15.2784L70.0242 16.2955L68.885 17.8973L69.7463 18.5114L72.467 14.687L71.6057 14.0706L70.5614 15.5408L69.1403 14.523L70.1846 13.0559L69.3169 12.4353L66.5962 16.2597L67.4639 16.8804Z" fill="white"/>
<path opacity="0.8" d="M71.7629 20.4121C71.9897 20.6384 72.2622 20.8132 72.5621 20.9249C72.8621 21.0365 73.1824 21.0824 73.5015 21.0593C73.8206 21.0362 74.1311 20.9447 74.4119 20.791C74.6927 20.6373 74.9374 20.425 75.1293 20.1684C75.3562 19.9611 75.537 19.7082 75.66 19.4262C75.783 19.1442 75.8454 18.8393 75.8432 18.5316C75.841 18.2238 75.7742 17.9199 75.6472 17.6397C75.5201 17.3595 75.3357 17.1094 75.1058 16.9053C74.8765 16.6882 74.6045 16.5213 74.3072 16.4155C74.0099 16.3097 73.6939 16.2672 73.3793 16.2907C73.0647 16.3143 72.7585 16.4033 72.4802 16.5522C72.2018 16.7011 71.9576 16.9066 71.7629 17.1555C71.5352 17.3612 71.3532 17.6125 71.2286 17.8932C71.1039 18.1739 71.0396 18.4778 71.0396 18.785C71.0396 19.0923 71.1039 19.3961 71.2286 19.6769C71.3532 19.9576 71.5352 20.2089 71.7629 20.4145V20.4121ZM72.6015 17.9037C73.2205 17.2335 73.9894 17.0174 74.5168 17.5032C75.0499 18.0019 74.8571 18.8093 74.2843 19.43C73.6653 20.0961 72.8996 20.3235 72.3754 19.8361C71.8512 19.3487 71.9792 18.5819 72.6015 17.9061" fill="white"/>
<path opacity="0.8" d="M74.0867 21.4078L73.5195 22.0577C73.7265 22.3101 73.9949 22.5045 74.299 22.6222C75.0751 22.8976 75.887 22.4119 76.8033 21.6304L77.6548 20.9082L78.3427 21.7262L75.4259 24.1981L76.1073 25.0104L79.6885 21.974L77.6492 19.5574L76.0814 20.8838C75.6976 21.3001 75.1827 21.5715 74.623 21.6523C74.4223 21.6328 74.2337 21.547 74.0867 21.4086" fill="white"/>
<path opacity="0.8" d="M78.2481 28.146L78.9684 27.6569L77.8876 26.0583L78.808 25.4344L79.777 26.8657L80.4908 26.3832L79.5218 24.9487L80.3304 24.4003L81.3553 25.9201L82.0755 25.4312L80.4543 23.0283L76.5718 25.6643L78.2481 28.146Z" fill="white"/>
<path opacity="0.8" d="M82.3299 27.6684L78.9902 29.4774L79.4974 30.4164L82.8339 28.6075L83.4432 29.7333L84.225 29.3101L82.513 26.1323L81.7304 26.5588L82.3299 27.6684Z" fill="white"/>
<path opacity="0.8" d="M80.6934 32.927L82.5131 32.1951L83.1613 33.8165L81.3448 34.5516L81.7377 35.5362L86.0853 33.7832L85.6924 32.8019L84.0225 33.4721L83.3711 31.8466L85.0442 31.1773L84.648 30.1863L80.2964 31.936L80.6934 32.927Z" fill="white"/>
<g opacity="0.8">
<path opacity="0.8" d="M82.2893 37.4559L84.165 37.9555C84.7614 38.1105 85.3674 38.2256 85.979 38.3L85.9855 38.3227C85.3348 38.4307 84.6901 38.5722 84.054 38.7467L82.7147 39.0943L82.9578 40.0399L87.4949 38.8548L87.2227 37.8044L85.1834 37.2918C84.63 37.1472 83.9519 36.9994 83.3596 36.9052L83.3531 36.8751C83.9689 36.7573 84.6924 36.5859 85.4192 36.3958L86.7641 36.045L86.5211 35.0994L81.9839 36.2813L82.2893 37.4559Z" fill="white"/>
<path opacity="0.8" d="M83.2371 41.6692L85.0196 41.5514C85.6021 41.5181 86.3224 41.4555 86.9544 41.4133V41.4262C86.3613 41.6066 85.7131 41.843 85.1792 42.0599L83.4413 42.7617L83.5329 43.5863L85.415 43.9469C85.9821 44.0655 86.6659 44.1833 87.2785 44.2621V44.2824C86.6003 44.3636 85.9262 44.4563 85.3664 44.5416L83.592 44.8169L83.7095 45.8477L88.339 45.0598L88.1818 43.6789L86.5776 43.3539C86.0405 43.2589 85.4085 43.1703 84.8551 43.1013V43.0818C85.389 42.9112 85.9619 42.7008 86.4755 42.4937L87.9777 41.8609L87.8156 40.4556L83.1245 40.6854L83.2371 41.6692Z" fill="white"/>
<path opacity="0.8" d="M50.3577 45.1279C53.9226 45.1279 56.2147 42.9477 56.2147 39.4295C56.2147 35.9666 53.9267 33.7864 50.4103 33.7864C46.7368 33.7864 44.3921 35.9666 44.3921 39.4295C44.3921 42.8364 46.7887 45.1279 50.3577 45.1279Z" fill="white"/>
<path opacity="0.8" d="M46.7969 15.5537C40.495 15.5537 34.3346 17.4274 29.0948 20.9377C23.855 24.4481 19.7711 29.4375 17.3597 35.2749C14.9482 41.1123 14.3174 47.5356 15.547 53.7325C16.7767 59.9294 19.8116 65.6215 24.268 70.089C28.7244 74.5565 34.402 77.5987 40.5829 78.831C46.7638 80.0632 53.1704 79.4301 58.9924 77.0118C64.8144 74.5934 69.7904 70.4984 73.2911 65.2446C76.7918 59.9908 78.66 53.8141 78.6593 47.4958C78.6591 43.3009 77.8348 39.1471 76.2334 35.2716C74.6321 31.3961 72.2851 27.8748 69.3264 24.9087C66.3677 21.9426 62.8553 19.5898 58.9896 17.9847C55.124 16.3796 50.981 15.5535 46.7969 15.5537ZM35.0173 68.2547H28.5153V41.219H19.2465V36.5287C23.2441 36.5287 29.0501 35.744 30.1163 28.9294H35.0173V68.2547ZM50.2541 68.9241C42.4761 68.9241 37.204 64.1216 37.204 56.9691C37.204 52.1114 39.706 48.5892 44.0204 47.1937C40.6653 45.963 38.694 42.9493 38.694 39.0371C38.694 32.8919 43.5399 28.6475 50.4672 28.6475C57.179 28.6475 61.8677 32.8919 61.8677 38.873C61.9533 40.6363 61.4922 42.3828 60.5477 43.8727C59.6033 45.3626 58.2218 46.5228 56.5932 47.1937C60.9043 48.7598 63.4095 51.4413 63.4095 56.6377C63.4095 64.0071 58.135 68.9241 50.2541 68.9241ZM77.1402 46.1173V47.9857H70.6415V54.5013H68.778V47.9857H62.2793V46.1173H68.778V39.6017H70.6415V46.1173H77.1402Z" fill="white"/>
<path opacity="0.8" d="M50.2499 49.708C49.3288 49.6576 48.4073 49.8022 47.5455 50.1322C46.6837 50.4623 45.9009 50.9705 45.2478 51.6238C44.5947 52.2771 44.0861 53.0609 43.755 53.9242C43.4239 54.7875 43.2777 55.711 43.3259 56.6347C43.3259 61.1024 46.0952 63.8985 50.463 63.8985C54.7264 63.8985 57.2793 61.2722 57.2793 56.8052C57.2793 52.4455 54.51 49.708 50.2499 49.708Z" fill="white"/>
<path opacity="0.8" d="M46.7987 0.976807C37.621 0.976646 28.6493 3.70509 21.0183 8.81721C13.3873 13.9293 7.43964 21.1955 3.92755 29.6967C0.415453 38.1979 -0.503348 47.5525 1.28734 56.5773C3.07802 65.6021 7.49776 73.8917 13.9876 80.398C20.4775 86.9044 28.746 91.3351 37.7475 93.1298C46.7489 94.9245 56.0791 94.0027 64.558 90.4809C73.0369 86.959 80.2837 80.9953 85.382 73.3441C90.4803 65.6928 93.2011 56.6976 93.2003 47.496C93.1864 35.162 88.2931 23.3373 79.594 14.6162C70.895 5.8951 59.1006 0.989922 46.7987 0.976807ZM46.7987 2.24318C58.7656 2.2563 70.2387 7.02811 78.7009 15.5117C87.1631 23.9953 91.9233 35.4979 91.9372 47.496H80.399C80.3554 56.4024 76.7959 64.9291 70.499 71.2115C64.2021 77.4939 55.6801 81.0208 46.7967 81.0208C37.9133 81.0208 29.3914 77.4939 23.0944 71.2115C16.7975 64.9291 13.2381 56.4024 13.1944 47.496H1.65703C1.67097 35.4973 6.43164 23.9942 14.8945 15.5105C23.3574 7.02683 34.8313 2.25544 46.7987 2.24318ZM3.65096 55.3413C3.50017 54.6187 3.53728 53.8693 3.75871 53.1652L4.84926 53.283C4.67559 53.8648 4.63516 54.4785 4.73097 55.0782C4.91164 56.0367 5.4715 56.4933 6.16828 56.3625C7.10164 56.1813 7.16403 55.2 7.01009 54.3926L6.89828 53.8151L7.89727 53.6241L8.00827 54.2025C8.17031 55.0522 8.73746 55.6233 9.40264 55.4957C9.99896 55.3804 10.2704 54.8459 10.1318 54.1034C10.0014 53.5545 9.74569 53.0434 9.38482 52.6104L10.2761 52.101C10.7877 52.6686 11.1284 53.37 11.2588 54.1237C11.5367 55.5859 10.9704 56.6419 9.87419 56.8514C9.45174 56.9281 9.01587 56.8541 8.64208 56.6424C8.2683 56.4307 7.98016 56.0946 7.82759 55.6923L7.80815 55.6988C7.8807 56.166 7.77173 56.6432 7.50372 57.0322C7.23571 57.4212 6.82906 57.6924 6.36759 57.7897C4.78282 58.0919 3.9086 56.7036 3.65015 55.3413H3.65096ZM10.4203 72.0362L9.69675 70.7624L11.1997 69.1248L10.0241 67.0632L7.86973 67.5554L7.17294 66.3313L14.8335 64.7066L15.6947 66.22L10.4203 72.0362ZM20.6354 82.7337L19.6008 81.8506L23.7126 77.0092L21.4213 75.0523L17.3127 79.8913L16.274 79.0083L21.1134 73.3164L25.474 77.0417L20.6354 82.7337ZM35.4696 84.4606C35.3731 84.7578 35.2158 85.0315 35.0078 85.2642C34.7998 85.497 34.5456 85.6836 34.2615 85.8123C33.4515 86.1052 32.5592 86.0676 31.7766 85.7076C31.5686 85.6299 31.3673 85.5353 31.1746 85.4249L30.1594 88.0543L28.902 87.5669L31.5506 80.6874C32.2334 80.828 32.9019 81.0312 33.5477 81.2943C34.2997 81.5197 34.9495 82.0015 35.3845 82.6565C35.5311 82.9324 35.6148 83.2375 35.6295 83.5498C35.6442 83.862 35.5896 84.1737 35.4696 84.4622V84.4606ZM47.1253 85.0398L44.1526 84.8887L44.0538 86.8156L46.8595 86.9569L46.8044 88.0665L43.9987 87.9219L43.8836 90.1152L47.0232 90.2777L46.9681 91.3938L42.4698 91.1639L42.849 83.6962L47.1812 83.9196L47.1253 85.0398ZM63.6163 88.1186L56.2725 90.5083L53.974 83.3949L55.2347 82.9887L57.1889 89.0348L59.1893 88.3849L57.2383 82.3413L58.5087 81.9278L60.463 87.9739L62.4634 87.3241L60.5091 81.278L61.7828 80.8645L63.7467 86.9431L64.4314 86.753L65.0568 88.8902C64.7328 89.034 64.3949 89.1818 64.0611 89.3199L63.6163 88.1186ZM72.6291 82.9197L67.9444 77.0994L71.323 74.3684L72.0239 75.2416L69.7091 77.1156L70.9171 78.6192L73.1047 76.8467L73.799 77.7094L71.6155 79.4827L72.9929 81.1886L75.4381 79.209L76.1389 80.0789L72.6291 82.9197ZM84.6842 69.4352L81.9011 67.6829L80.2248 70.358L83.0047 72.1109L82.2811 73.2628L75.972 69.2873L76.6955 68.1322L79.2234 69.7276L80.8997 67.0469L78.3719 65.4548L79.0954 64.2997L85.4077 68.28L84.6842 69.4352ZM89.9352 54.8677L87.729 55.0911L87.238 57.412L89.1695 58.4818L88.8779 59.8571L82.0818 55.9645L82.4383 54.2585L90.2366 53.4349L89.9352 54.8677Z" fill="white"/>
</g>
</svg>
